<?xml version="1.0" encoding="utf-8"?><!DOCTYPE svg PUBLIC "-//W3C//DTD SVG 1.1//EN" "http://www.w3.org/Graphics/SVG/1.1/DTD/svg11.dtd"><svg width="204" height="204" viewBox="0 0 204 204" xmlns="http://www.w3.org/2000/svg" xmlns:xlink="http://www.w3.org/1999/xlink"><svg viewBox="-1 -1 68 68" width="68" height="68" id="arrowDown" xmlns="http://www.w3.org/2000/svg"><path d="M61.6 16.6c-2.9-5-6.9-9-12-12C44.6 1.7 39.1.2 33.1.2S21.6 1.7 16.6 4.6c-5 2.9-9 6.9-12 12C1.7 21.6.2 27.1.2 33.1s1.5 11.5 4.4 16.5c2.9 5 6.9 9 12 12 5 2.9 10.5 4.4 16.5 4.4s11.5-1.5 16.5-4.4c5-2.9 9-6.9 12-12 2.9-5 4.4-10.5 4.4-16.5 0-5.9-1.5-11.4-4.4-16.5zM54.5 31L35.1 50.4c-.5.5-1.2.8-1.9.8s-1.4-.3-1.9-.8L11.8 31c-.6-.6-.8-1.2-.8-2 0-.7.3-1.4.8-1.9l4.4-4.4c.5-.5 1.2-.8 1.9-.8s1.4.3 1.9.8l13.1 13.1 13.1-13.1c.5-.5 1.2-.8 1.9-.8s1.4.3 1.9.8l4.4 4.4c.5.5.8 1.2.8 1.9.1.8-.2 1.4-.7 2z"/></svg><svg viewBox="-1 -1 68 68" width="68" height="68" id="arrowUp" x="68" xmlns="http://www.w3.org/2000/svg"><path d="M4.7 49.6c2.9 5 6.9 9 12 12 5 2.9 10.5 4.4 16.5 4.4s11.5-1.5 16.5-4.4c5-2.9 9-6.9 12-12 2.9-5 4.4-10.5 4.4-16.5s-1.5-11.5-4.4-16.5c-2.9-5-6.9-9-12-12C44.7 1.7 39.2.2 33.2.2S21.7 1.7 16.6 4.7c-5 2.9-9 6.9-12 12C1.7 21.7.2 27.2.2 33.2c.1 5.9 1.5 11.4 4.5 16.4zm7.1-14.3l19.4-19.4c.5-.5 1.2-.8 1.9-.8s1.4.3 1.9.8l19.4 19.4c.5.5.8 1.2.8 1.9s-.3 1.4-.8 1.9L50 43.5c-.5.5-1.2.8-1.9.8s-1.4-.3-1.9-.8L33.1 30.4 20 43.5c-.5.5-1.2.8-1.9.8s-1.4-.3-1.9-.8l-4.4-4.4c-.6-.5-.8-1.1-.8-1.9 0-.7.2-1.3.8-1.9z"/></svg><svg viewBox="-1 -1 68 68" width="68" height="68" id="bathtub" y="68" xmlns="http://www.w3.org/2000/svg"><path d="M63.3 38.9h-2.1v-23c0-5.4-4.4-9.7-9.7-9.7-5 0-9.1 3.8-9.7 8.7h-6.7c-1.4 0-2.5 1.1-2.5 2.5s1.1 2.5 2.5 2.5h15.7c1.4 0 2.5-1.1 2.5-2.5s-1.1-2.5-2.5-2.5h-6.4c.5-3.4 3.5-6 7-6 3.9 0 7.1 3.2 7.1 7.1v23H2.7C1.2 39 0 40.2 0 41.7c0 1.5 1.2 2.7 2.7 2.7h.7c.3 2.5 1.2 9.1 1.7 11.9.3 2 1.6 3.6 3.6 3.6h48.7c2 0 3.3-1.6 3.6-3.6.5-2.8 1.4-9.4 1.7-11.9h.7c1.5 0 2.7-1.2 2.7-2.7s-1.3-2.8-2.8-2.8z"/></svg><svg viewBox="-1 -1 68 68" width="68" height="68" id="bed" x="68" y="68" xmlns="http://www.w3.org/2000/svg"><g><path d="M7.5 24.7c0-3.4 2.8-6.2 6.2-6.2h14c2.2 0 4.1 1.1 5.2 2.8 1.1-1.7 3-2.8 5.2-2.8h14c3.4 0 6.2 2.8 6.2 6.2v.3h1.6v-6.1c0-3.8-3.1-6.9-6.9-6.9H12.8c-3.8 0-6.9 3.1-6.9 6.9V25h1.6v-.3zM63.4 27.9H2.6c-1.4 0-2.6 1.2-2.6 2.6v15.2c0 1.4 1.2 2.6 2.6 2.6h1.1L2.4 52c-.3.8.1 1.6.9 1.9.2 0 .3.1.5.1.6 0 1.2-.4 1.4-1l1.6-4.6h52.4l1.6 4.6c.2.6.8 1 1.4 1 .2 0 .3 0 .5-.1.8-.3 1.2-1.1.9-1.9l-1.3-3.6h1.1c1.4 0 2.6-1.2 2.6-2.6V30.5c0-1.4-1.2-2.6-2.6-2.6z"/><path d="M38.2 21.4c-1.8 0-3.3 1.5-3.3 3.3v.3h20.7v-.3c0-1.8-1.5-3.3-3.3-3.3H38.2zM13.8 21.4c-1.8 0-3.3 1.5-3.3 3.3v.3h20.7v-.3c0-1.8-1.5-3.3-3.3-3.3H13.8z"/></g></svg><svg viewBox="-1 -1 68 68" width="68" height="68" id="mail" x="136" xmlns="http://www.w3.org/2000/svg"><path d="M59.9 58.7c1.5 0 2.7-.5 3.8-1.4L45.2 38.7c-.4.3-.9.6-1.3.9-1.4 1-2.5 1.8-3.4 2.4-.9.6-2 1.1-3.4 1.7-1.4.6-2.8.9-4 .9H33c-1.2 0-2.6-.3-4-.9-1.4-.6-2.6-1.2-3.4-1.7-.9-.6-2-1.4-3.4-2.4-.4-.3-.8-.6-1.3-.9L2.3 57.3c1.1 1 2.4 1.4 3.8 1.4h53.8zM3.9 27c-1.4-.9-2.6-2-3.7-3.2V52l16.3-16.3c-3.2-2.2-7.4-5.1-12.6-8.7zM62.1 27c-5 3.4-9.2 6.3-12.7 8.7L65.7 52V23.9c-1 1.1-2.2 2.2-3.6 3.1z"/><path d="M59.9 7.3H6.1c-1.9 0-3.3.6-4.3 1.9C.8 10.5.3 12 .3 14c0 1.5.7 3.2 2 5 1.3 1.8 2.8 3.2 4.3 4.2.8.6 3.3 2.3 7.5 5.2 2.3 1.6 4.2 2.9 5.9 4.1 1.4 1 2.7 1.9 3.7 2.6.1.1.3.2.6.4s.6.4 1 .7c.8.6 1.4 1 2 1.4.5.3 1.1.8 1.9 1.2.7.4 1.4.8 2.1 1 .7.2 1.3.3 1.8.3H33c.6 0 1.2-.1 1.8-.3.7-.2 1.4-.6 2.1-1 .7-.4 1.4-.8 1.9-1.2.5-.3 1.2-.8 2-1.4.4-.3.7-.5 1-.7.3-.2.4-.3.6-.4.8-.6 2-1.4 3.7-2.6 3-2.1 7.5-5.2 13.4-9.3 1.8-1.2 3.3-2.7 4.5-4.5 1.2-1.7 1.8-3.6 1.8-5.5 0-1.6-.6-3-1.7-4.1-1.3-1.2-2.6-1.8-4.2-1.8z"/></svg><svg viewBox="-1 -1 68 68" width="68" height="68" id="minAge" x="136" y="68" xmlns="http://www.w3.org/2000/svg"><g><path d="M66 40.3h-5.2c-.4 0-.6.1-.8.6-.8 2.9-2.1 5.6-3.7 8.1-2.9 4.5-6.7 8-11.5 10.5-3.6 1.9-7.5 3.1-11.6 3.4-7.8.6-14.9-1.4-21.1-6.2-6.6-5-10.5-11.8-11.8-20L0 34.3v-3.9c.2-1.2.3-2.3.5-3.5C2.4 17.2 7.7 10 16.4 5.3c5.2-2.8 10.7-3.9 16.5-3.4 6.4.5 12.2 2.8 17.2 6.9 2.9 2.4 5.3 5.3 7.2 8.6.1.2.2.5.1.7-.8 1.6-1.6 3.3-2.5 4.9-3-7.1-7.9-12.2-15.1-15-5.7-2.2-11.4-2.4-17.2-.5-12.5 4.1-19.3 16.1-18 27.7 1.5 13.1 12.1 22.4 24.1 23.2 13 .9 23.4-7.6 26.7-18h-5.3c2.7-5.3 5.3-10.6 8-15.9 2.6 5.3 5.2 10.5 7.9 15.8z"/><path d="M41.9 33.3v2.9h4.9v2.2H39V26.3h7.5v2.2h-4.7V31h4.4v2.2c-1.3.1-2.8.1-4.3.1zM28.5 27.5c2.5-1.7 5.2-1.7 8.1-.9-.2.8-.4 1.5-.5 2-1.2-.1-2.4-.3-3.5-.2-2.2.1-3.5 1.8-3.4 4 .1 2.7 1.9 4.1 4.5 3.8.5 0 .8-.2.7-.8s0-1.2 0-1.9h-1.9v-2.2h4.4v5.8c0 .4-.1.6-.5.7-1.9.5-3.8.7-5.8.3-2.3-.5-3.7-1.9-4.3-4.2-.6-2.2.2-5 2.2-6.4zM21.2 33.2c-.5-1.6-.9-3.2-1.4-4.9-.4 1.7-.9 3.3-1.3 4.9h2.7zm-3.1 2.2c-.2.9-.5 1.8-.7 2.6-.1.4-.2.5-.6.5h-2.4c.5-1.5.9-3 1.4-4.4.7-2.4 1.5-4.8 2.2-7.3.1-.4.3-.6.8-.6h2.6c.2 0 .5.2.5.4 1.2 3.8 2.4 7.7 3.6 11.5v.3h-2.7c-.1 0-.3-.3-.4-.5-.3-.9-.5-1.8-.8-2.6-1.2.1-2.3.1-3.5.1z"/></g></svg><svg viewBox="-1 -1 68 68" width="68" height="68" id="moon" y="136" xmlns="http://www.w3.org/2000/svg"><path d="M64.4 45.3c-.1-.6-.4-1.1-.7-1.5-.9-.9-1.9-1.1-3.1-.6-3.1 1.5-6.4 2.2-9.8 2.2-4.2 0-8.1-1-11.7-3.1-3.6-2.1-6.4-4.9-8.5-8.5-2.1-3.6-3.1-7.5-3.1-11.7 0-3.3.7-6.4 1.9-9.4 1.3-3 3.2-5.5 5.6-7.8.9-.9 1.2-1.9.6-3.1C35.1.6 34.2.1 33 .1 28.6.3 24.5 1.3 20.6 3c-3.9 1.8-7.3 4.1-10.1 7-2.8 2.9-5 6.4-6.7 10.3-1.6 4-2.5 8.2-2.5 12.5 0 4.5.9 8.7 2.6 12.8 1.7 4.1 4.1 7.6 7 10.5 2.9 2.9 6.4 5.3 10.5 7 4.1 1.7 8.3 2.6 12.8 2.6 6.4 0 12.3-1.7 17.7-5.2 5.4-3.5 9.5-8.1 12.1-13.9.5-.2.5-.8.4-1.3zM46.1 57.9c-3.7 1.8-7.6 2.6-11.7 2.6-3.7 0-7.3-.7-10.6-2.2-3.4-1.5-6.3-3.4-8.7-5.8-2.4-2.4-4.4-5.4-5.8-8.7-1.5-3.4-2.2-6.9-2.2-10.6 0-6.1 1.8-11.6 5.5-16.5 3.6-4.8 8.3-8.1 14.1-9.8-3 4.7-4.5 9.8-4.5 15.3 0 5.2 1.3 10 3.9 14.4 2.6 4.4 6.1 7.9 10.5 10.5C41 49.7 45.8 51 51 51c1.6 0 3.2-.1 4.7-.4-2.8 3.1-5.9 5.5-9.6 7.3z"/></svg><svg viewBox="-1 -1 68 68" width="68" height="68" id="oldPhone" x="68" y="136" xmlns="http://www.w3.org/2000/svg"><path d="M56.6 40.3c-.3-2.2-2-3.9-4.1-4.4-8.4-2-10.5-6.8-10.8-12.1-1.5-.3-4.1-.6-8.6-.6s-7.1.3-8.6.6C24 29.2 21.9 34 13.6 36c-2.2.5-3.8 2.2-4.1 4.4L7.8 51.5c-.6 3.9 2.3 7.5 6.3 7.5h37.7c4 0 6.9-3.6 6.3-7.5l-1.5-11.2zM33 50.8c-4.5 0-8.2-3.6-8.2-8.1s3.7-8.1 8.2-8.1 8.2 3.6 8.2 8.1-3.7 8.1-8.2 8.1zM65.3 20c0-4.9-12.4-13-32.3-13S.7 15.1.7 20c-.1 4.9.1 11.2 8.2 10.2 9.6-1.2 9-4.6 9-9.3 0-3.3 7.8-4.1 15.1-4.1s15.1.8 15.1 4.1c0 4.8-.6 8.1 9 9.3 8.2 1 8.3-5.3 8.2-10.2z"/></svg><svg viewBox="-1 -1 68 68" width="68" height="68" id="person" x="136" y="136" xmlns="http://www.w3.org/2000/svg"><path d="M32.4 33.1c4.5 0 8.4-1.6 11.6-4.8 3.2-3.2 4.8-7.1 4.8-11.6S47.2 8.3 44 5.1c-3.1-3.4-7-5-11.6-5S24 1.7 20.8 5C17.6 8.2 16 12.1 16 16.6s1.6 8.4 4.8 11.6c3.2 3.3 7.1 4.9 11.6 4.9z"/><path d="M62.5 50.5c-.1-1.4-.3-3-.6-4.7-.3-1.7-.7-3.2-1.1-4.7-.5-1.4-1.1-2.8-1.8-4.2-.8-1.4-1.7-2.5-2.7-3.5-1-1-2.2-1.7-3.7-2.3-1.4-.6-3-.9-4.8-.9-.3 0-.9.3-1.8.9-.9.6-2 1.3-3.2 2.1-1.2.8-2.7 1.4-4.6 2.1-1.9.6-3.8.9-5.7.9-1.9 0-3.8-.3-5.7-.9-1.9-.6-3.4-1.3-4.6-2.1-1.2-.8-2.3-1.4-3.2-2.1-.9-.6-1.5-.9-1.8-.9-1.7 0-3.3.3-4.8.9-1.4.6-2.7 1.3-3.7 2.3-1 1-1.9 2.1-2.7 3.5-.8 1.4-1.4 2.8-1.8 4.2-.5 1.4-.8 3-1.1 4.7-.3 1.7-.5 3.2-.6 4.7-.1 1.4-.1 2.9-.1 4.4 0 3.4 1 6.1 3.1 8.1s4.9 3 8.3 3h37.5c3.5 0 6.2-1 8.3-3 2.1-2 3.1-4.7 3.1-8.1-.1-1.5-.1-3-.2-4.4z"/></svg></svg>