<?xml version="1.0" encoding="utf-8"?><!DOCTYPE svg PUBLIC "-//W3C//DTD SVG 1.1//EN" "http://www.w3.org/Graphics/SVG/1.1/DTD/svg11.dtd"><svg width="246" height="228" viewBox="0 0 246 228" xmlns="http://www.w3.org/2000/svg" xmlns:xlink="http://www.w3.org/1999/xlink"><svg viewBox="-1 -1 68 68" width="68" height="68" id="bathtub" xmlns="http://www.w3.org/2000/svg"><path d="M63.3 38.9h-2.1v-23c0-5.4-4.4-9.7-9.7-9.7-5 0-9.1 3.8-9.7 8.7h-6.7c-1.4 0-2.5 1.1-2.5 2.5s1.1 2.5 2.5 2.5h15.7c1.4 0 2.5-1.1 2.5-2.5s-1.1-2.5-2.5-2.5h-6.4c.5-3.4 3.5-6 7-6 3.9 0 7.1 3.2 7.1 7.1v23H2.7C1.2 39 0 40.2 0 41.7c0 1.5 1.2 2.7 2.7 2.7h.7c.3 2.5 1.2 9.1 1.7 11.9.3 2 1.6 3.6 3.6 3.6h48.7c2 0 3.3-1.6 3.6-3.6.5-2.8 1.4-9.4 1.7-11.9h.7c1.5 0 2.7-1.2 2.7-2.7s-1.3-2.8-2.8-2.8z"/></svg><svg viewBox="-1 -1 24 24" width="24" height="24" id="bathtub-Xsmall" x="68" y="178" xmlns="http://www.w3.org/2000/svg"><path d="M21.1 13h-.7V5.3c0-1.8-1.5-3.2-3.2-3.2-1.6 0-3 1.3-3.2 2.9h-2.3c-.4 0-.8.4-.8.8s.4.8.8.8h5.2c.4 0 .8-.4.8-.8s-.4-.8-.8-.8h-2.1c.2-1.1 1.2-2 2.4-2 1.3 0 2.4 1 2.4 2.4V13H.9c-.5 0-.9.4-.9.9s.4.9.9.9h.2c.1.8.4 3 .6 4 .1.7.5 1.2 1.2 1.2h16.2c.7 0 1.1-.6 1.2-1.2.2-.9.4-3.1.5-4h.2c.5 0 .9-.4.9-.9.2-.5-.3-.9-.8-.9z"/></svg><svg viewBox="-1 -1 42 42" width="42" height="42" id="bathtub-small" x="152" y="136" xmlns="http://www.w3.org/2000/svg"><path d="M38.4 23.6h-1.3v-14c0-3.3-2.7-5.9-5.9-5.9-3 0-5.5 2.3-5.9 5.3h-4.1c-.8 0-1.5.7-1.5 1.5s.7 1.5 1.5 1.5h9.5c.8 0 1.5-.7 1.5-1.5S31.5 9 30.7 9h-3.9c.4-2 2.2-3.6 4.4-3.6 2.4 0 4.3 1.9 4.3 4.3v13.9H1.6c-.9 0-1.6.7-1.6 1.6 0 .9.7 1.6 1.6 1.6H2c.2 1.5.7 5.5 1 7.2.2 1.2 1 2.2 2.2 2.2h29.5c1.2 0 2-1 2.2-2.2.3-1.7.8-5.7 1-7.2h.4c.9 0 1.6-.7 1.6-1.6.2-.8-.6-1.6-1.5-1.6z"/></svg><svg viewBox="-1 -1 68 68" width="68" height="68" id="bed" x="68" xmlns="http://www.w3.org/2000/svg"><g><path d="M7.5 24.7c0-3.4 2.8-6.2 6.2-6.2h14c2.2 0 4.1 1.1 5.2 2.8 1.1-1.7 3-2.8 5.2-2.8h14c3.4 0 6.2 2.8 6.2 6.2v.3h1.6v-6.1c0-3.8-3.1-6.9-6.9-6.9H12.8c-3.8 0-6.9 3.1-6.9 6.9V25h1.6v-.3zM63.4 27.9H2.6c-1.4 0-2.6 1.2-2.6 2.6v15.2c0 1.4 1.2 2.6 2.6 2.6h1.1L2.4 52c-.3.8.1 1.6.9 1.9.2 0 .3.1.5.1.6 0 1.2-.4 1.4-1l1.6-4.6h52.4l1.6 4.6c.2.6.8 1 1.4 1 .2 0 .3 0 .5-.1.8-.3 1.2-1.1.9-1.9l-1.3-3.6h1.1c1.4 0 2.6-1.2 2.6-2.6V30.5c0-1.4-1.2-2.6-2.6-2.6z"/><path d="M38.2 21.4c-1.8 0-3.3 1.5-3.3 3.3v.3h20.7v-.3c0-1.8-1.5-3.3-3.3-3.3H38.2zM13.8 21.4c-1.8 0-3.3 1.5-3.3 3.3v.3h20.7v-.3c0-1.8-1.5-3.3-3.3-3.3H13.8z"/></g></svg><svg viewBox="-1 -1 24 24" width="24" height="24" id="bed-Xsmall" x="140" y="178" xmlns="http://www.w3.org/2000/svg"><path d="M2.5 8.3c0-1.2.9-2.1 2.1-2.1h4.7c.7 0 1.4.4 1.8.9.4-.5 1-.9 1.8-.9h4.7c1.2 0 2.1.9 2.1 2.1v.1h.6v-2c0-1.3-1-2.3-2.3-2.3H4.3C3 4 2 5.1 2 6.3v2h.5zM21.1 9.3H.9c-.5 0-.9.4-.9.9v5.1c0 .4.4.9.9.9h.4l-.4 1.2c-.1.3.1.5.3.7 0-.1 0-.1.1-.1.2 0 .4-.1.4-.3l.6-1.5h17.5l.6 1.5c.1.2.3.3.4.3.1 0 .1 0 .2-.1.3-.1.4-.4.3-.7l-.4-1.2h.4c.4 0 .9-.4.9-.9V10c-.2-.3-.6-.7-1.1-.7z"/><path d="M12.8 7.2c-.6 0-1.1.5-1.1 1.1v.1h6.9v-.1c0-.6-.5-1.1-1.1-1.1h-4.7zM4.6 7.2c-.6 0-1.1.4-1.1 1.1v.1h6.9v-.1c0-.6-.5-1.1-1.1-1.1H4.6z"/></svg><svg viewBox="-1 -1 42 42" width="42" height="42" id="bed-small" x="204" xmlns="http://www.w3.org/2000/svg"><path d="M4.5 15c0-2.1 1.7-3.8 3.8-3.8h8.5c1.3 0 2.5.7 3.2 1.7.7-1 1.8-1.7 3.2-1.7h8.5c2.1 0 3.8 1.7 3.8 3.8v.2h1v-3.7c0-2.3-1.9-4.2-4.2-4.2H7.8c-2.3 0-4.2 1.9-4.2 4.2v3.7h1V15h-.1zM38.4 16.9H1.6c-.8 0-1.6.7-1.6 1.6v9.2c0 .8.7 1.6 1.6 1.6h.7l-.8 2.2c-.2.5.1 1 .5 1.2.1 0 .2.1.3.1.4 0 .7-.2.8-.6l1-2.8h31.8l1 2.8c.1.4.5.6.8.6.1 0 .2 0 .3-.1.5-.2.7-.7.5-1.2l-.8-2.2h.7c.8 0 1.6-.7 1.6-1.6v-9.3c0-.8-.7-1.5-1.6-1.5z"/><path d="M23.2 13c-1.1 0-2 .9-2 2v.2h12.5V15c0-1.1-.9-2-2-2h-8.5zM8.4 13c-1.1 0-2 .9-2 2v.2h12.5V15c0-1.1-.9-2-2-2H8.4z"/></svg><svg viewBox="-1 -1 68 68" width="68" height="68" id="mail" x="68" y="68" xmlns="http://www.w3.org/2000/svg"><path d="M59.9 58.7c1.5 0 2.7-.5 3.8-1.4L45.2 38.7c-.4.3-.9.6-1.3.9-1.4 1-2.5 1.8-3.4 2.4-.9.6-2 1.1-3.4 1.7-1.4.6-2.8.9-4 .9H33c-1.2 0-2.6-.3-4-.9-1.4-.6-2.6-1.2-3.4-1.7-.9-.6-2-1.4-3.4-2.4-.4-.3-.8-.6-1.3-.9L2.3 57.3c1.1 1 2.4 1.4 3.8 1.4h53.8zM3.9 27c-1.4-.9-2.6-2-3.7-3.2V52l16.3-16.3c-3.2-2.2-7.4-5.1-12.6-8.7zM62.1 27c-5 3.4-9.2 6.3-12.7 8.7L65.7 52V23.9c-1 1.1-2.2 2.2-3.6 3.1z"/><path d="M59.9 7.3H6.1c-1.9 0-3.3.6-4.3 1.9C.8 10.5.3 12 .3 14c0 1.5.7 3.2 2 5 1.3 1.8 2.8 3.2 4.3 4.2.8.6 3.3 2.3 7.5 5.2 2.3 1.6 4.2 2.9 5.9 4.1 1.4 1 2.7 1.9 3.7 2.6.1.1.3.2.6.4s.6.4 1 .7c.8.6 1.4 1 2 1.4.5.3 1.1.8 1.9 1.2.7.4 1.4.8 2.1 1 .7.2 1.3.3 1.8.3H33c.6 0 1.2-.1 1.8-.3.7-.2 1.4-.6 2.1-1 .7-.4 1.4-.8 1.9-1.2.5-.3 1.2-.8 2-1.4.4-.3.7-.5 1-.7.3-.2.4-.3.6-.4.8-.6 2-1.4 3.7-2.6 3-2.1 7.5-5.2 13.4-9.3 1.8-1.2 3.3-2.7 4.5-4.5 1.2-1.7 1.8-3.6 1.8-5.5 0-1.6-.6-3-1.7-4.1-1.3-1.2-2.6-1.8-4.2-1.8z"/></svg><svg viewBox="-1 -1 24 24" width="24" height="24" id="mail-Xsmall" x="116" y="178" xmlns="http://www.w3.org/2000/svg"><path d="M20 19.6c.5 0 .9-.2 1.3-.4L15.1 13c-.1.1-.3.2-.4.3-.4.3-.8.6-1.2.8-.3.2-.7.4-1.2.6-.4.2-.9.3-1.3.3s-.9-.1-1.3-.3c-.4-.2-.9-.4-1.2-.6-.3-.2-.7-.4-1.2-.8-.1-.1-.3-.2-.4-.3L.7 19.2c.4.3.8.4 1.3.4h18zM1.3 9C.9 8.7.4 8.4.1 8v9.4L5.5 12c-1-.8-2.5-1.8-4.2-3zM20.7 9c-1.7 1.2-3.1 2.1-4.2 2.9l5.4 5.4V8c-.3.4-.7.7-1.2 1z"/><path d="M20 2.4H2c-.7 0-1.1.2-1.4.7S.1 4 .1 4.7c0 .5.2 1 .7 1.7s.9 1 1.4 1.4c.3.2 1.1.8 2.5 1.8.8.5 1.4 1 2 1.4.4.3.9.7 1.2.9.1.1.1.1.2.1.1.1.2.1.3.2.3.2.4.3.7.4.2.1.4.3.7.4.2.1.4.3.7.3.2.1.4.1.6.1H11c.2 0 .4-.1.6-.1.2-.1.4-.2.7-.3.2-.1.4-.3.7-.4.2-.1.4-.3.7-.4.1-.1.2-.2.3-.2.1-.1.1-.1.2-.1.3-.2.7-.4 1.2-.9 1-.7 2.5-1.8 4.5-3.1.6-.4 1.1-.9 1.5-1.5.4-.6.6-1.2.6-1.8 0-.6-.2-1-.6-1.4-.4-.6-.9-.8-1.4-.8z"/></svg><svg viewBox="-1 -1 42 42" width="42" height="42" id="mail-small" x="110" y="136" xmlns="http://www.w3.org/2000/svg"><path d="M36.3 35.6c.9 0 1.6-.3 2.3-.8L27.4 23.5c-.2.2-.5.4-.8.5-.8.6-1.5 1.1-2.1 1.5-.5.4-1.2.7-2.1 1-.8.4-1.7.5-2.4.5s-1.6-.2-2.4-.5c-.8-.4-1.6-.7-2.1-1-.5-.4-1.2-.8-2.1-1.5-.2-.2-.5-.4-.8-.5L1.4 34.7c.7.6 1.5.8 2.3.8h32.6zM2.4 16.4c-.8-.5-1.6-1.2-2.2-1.9v17.1l9.9-9.9c-2-1.4-4.6-3.2-7.7-5.3zM37.6 16.4c-3 2.1-5.6 3.8-7.7 5.3l9.9 9.9v-17c-.6.6-1.3 1.2-2.2 1.8z"/><path d="M36.3 4.4H3.7c-1.2 0-2 .4-2.6 1.2S.2 7.3.2 8.5c0 .9.4 1.9 1.2 3S3.1 13.4 4 14c.5.4 2 1.4 4.5 3.2 1.4 1 2.5 1.8 3.6 2.5.8.6 1.6 1.2 2.2 1.6.1.1.2.1.4.2s.4.2.6.4c.5.4.8.6 1.2.8.3.2.7.5 1.2.7.4.2.8.5 1.3.6.4.1.8.2 1.1.2H20c.4 0 .7-.1 1.1-.2.4-.1.8-.4 1.3-.6.4-.2.8-.5 1.2-.7.3-.2.7-.5 1.2-.8.2-.2.4-.3.6-.4s.2-.2.4-.2c.5-.4 1.2-.8 2.2-1.6 1.8-1.3 4.5-3.2 8.1-5.6 1.1-.7 2-1.6 2.7-2.7.7-1 1.1-2.2 1.1-3.3 0-1-.4-1.8-1-2.5-.8-.8-1.6-1.2-2.6-1.2z"/></svg><svg viewBox="-1 -1 68 68" width="68" height="68" id="minAge" x="136" xmlns="http://www.w3.org/2000/svg"><g><path d="M66 40.3h-5.2c-.4 0-.6.1-.8.6-.8 2.9-2.1 5.6-3.7 8.1-2.9 4.5-6.7 8-11.5 10.5-3.6 1.9-7.5 3.1-11.6 3.4-7.8.6-14.9-1.4-21.1-6.2-6.6-5-10.5-11.8-11.8-20L0 34.3v-3.9c.2-1.2.3-2.3.5-3.5C2.4 17.2 7.7 10 16.4 5.3c5.2-2.8 10.7-3.9 16.5-3.4 6.4.5 12.2 2.8 17.2 6.9 2.9 2.4 5.3 5.3 7.2 8.6.1.2.2.5.1.7-.8 1.6-1.6 3.3-2.5 4.9-3-7.1-7.9-12.2-15.1-15-5.7-2.2-11.4-2.4-17.2-.5-12.5 4.1-19.3 16.1-18 27.7 1.5 13.1 12.1 22.4 24.1 23.2 13 .9 23.4-7.6 26.7-18h-5.3c2.7-5.3 5.3-10.6 8-15.9 2.6 5.3 5.2 10.5 7.9 15.8z"/><path d="M41.9 33.3v2.9h4.9v2.2H39V26.3h7.5v2.2h-4.7V31h4.4v2.2c-1.3.1-2.8.1-4.3.1zM28.5 27.5c2.5-1.7 5.2-1.7 8.1-.9-.2.8-.4 1.5-.5 2-1.2-.1-2.4-.3-3.5-.2-2.2.1-3.5 1.8-3.4 4 .1 2.7 1.9 4.1 4.5 3.8.5 0 .8-.2.7-.8s0-1.2 0-1.9h-1.9v-2.2h4.4v5.8c0 .4-.1.6-.5.7-1.9.5-3.8.7-5.8.3-2.3-.5-3.7-1.9-4.3-4.2-.6-2.2.2-5 2.2-6.4zM21.2 33.2c-.5-1.6-.9-3.2-1.4-4.9-.4 1.7-.9 3.3-1.3 4.9h2.7zm-3.1 2.2c-.2.9-.5 1.8-.7 2.6-.1.4-.2.5-.6.5h-2.4c.5-1.5.9-3 1.4-4.4.7-2.4 1.5-4.8 2.2-7.3.1-.4.3-.6.8-.6h2.6c.2 0 .5.2.5.4 1.2 3.8 2.4 7.7 3.6 11.5v.3h-2.7c-.1 0-.3-.3-.4-.5-.3-.9-.5-1.8-.8-2.6-1.2.1-2.3.1-3.5.1z"/></g></svg><svg viewBox="-1 -1 24 24" width="24" height="24" id="minAge-Xsmall" y="204" xmlns="http://www.w3.org/2000/svg"><path d="M22 14h-1.7c-.1 0-.2.1-.3.2-.3 1-.7 1.9-1.2 2.7-1 1.5-2.3 2.6-3.9 3.5-1.2.7-2.5 1-3.9 1.2-2.6.2-5-.4-7-2.1-2.2-1.6-3.5-4-4-6.7.1-.3.1-.5 0-.8v-1.3c.1-.4.1-.8.2-1.2.7-3.2 2.4-5.6 5.3-7.2C7.2 1.4 9 1 10.9 1.2c2.1.2 4.1.9 5.7 2.3 1 .8 1.8 1.8 2.4 2.9.1.1.1.2.1.2-.3.5-.5 1.1-.8 1.6-1-2.4-2.6-4.1-5.1-5-1.9-.7-3.7-.8-5.7-.2-4.2 1.4-6.4 5.4-6 9.2.5 4.3 4 7.5 8 7.8 4.3.3 7.8-2.5 8.9-6h-1.8c.9-1.8 1.8-3.5 2.6-5.3 1 1.8 1.9 3.5 2.8 5.3z"/><path d="M14 11.7v1h1.6v.7H13v-4h2.5v.7H14v.8h1.5v.7c-.5.1-1 .1-1.5.1zM9.5 9.7c.8-.6 1.8-.6 2.7-.3-.1.3-.1.5-.2.7-.4-.1-.8-.1-1.2-.1-.7.1-1.2.6-1.2 1.3.1.9.7 1.4 1.5 1.3.2 0 .3-.1.2-.3-.1-.2 0-.4 0-.7h-.7v-.7H12v2c0 .1-.1.2-.2.2-.7.2-1.3.2-1.9.1-.8-.2-1.2-.7-1.4-1.4.1-.7.4-1.6 1-2.1zM7 11.6c-.2-.6-.3-1-.4-1.6-.1.5-.3 1.1-.4 1.6H7zm-.9.8l-.3.9c-.1.1-.1.2-.2.2h-.8c.2-.5.3-1 .4-1.5.2-.8.5-1.6.7-2.4.1-.2.2-.3.3-.3h.9c.1 0 .2.1.2.1.4 1.3.8 2.6 1.2 3.8v.1h-.9c-.1 0-.1-.1-.1-.2l-.3-.9c-.4.2-.8.2-1.1.2z"/></svg><svg viewBox="-1 -1 42 42" width="42" height="42" id="minAge-small" x="204" y="42" xmlns="http://www.w3.org/2000/svg"><path d="M40 25.4H36.9c-.2 0-.4.1-.5.4-.5 1.8-1.3 3.4-2.2 4.9-1.8 2.7-4.1 4.8-7 6.4-2.2 1.2-4.5 1.9-7 2.1-4.7.4-9-.8-12.8-3.8-4-3-6.4-7.2-7.2-12.1-.1-.5-.1-1-.2-1.5v-2.4l.3-2.1C1.5 11.4 4.7 7.1 9.9 4.2c3.2-1.7 6.5-2.4 10-2.1 3.9.3 7.4 1.7 10.4 4.2 1.8 1.5 3.2 3.2 4.4 5.2.1.1.1.3.1.4l-1.5 3c-1.8-4.3-4.8-7.4-9.2-9.1-3.5-1.3-6.9-1.5-10.4-.3C6.1 8 2 15.3 2.8 22.3c.9 7.9 7.3 13.6 14.6 14.1 7.9.5 14.2-4.6 16.2-10.9h-3.2l4.8-9.6c1.6 3.2 3.2 6.3 4.8 9.5z"/><path d="M25.4 21.2V23h3v1.3h-4.7V17h4.5v1.3h-2.8v1.5h2.7v1.3c-.9.1-1.8.1-2.7.1zM17.3 17.7c1.5-1 3.2-1 4.9-.5-.1.5-.2.9-.3 1.2-.7-.1-1.5-.2-2.1-.1-1.3.1-2.1 1.1-2.1 2.4.1 1.6 1.2 2.5 2.7 2.3.3 0 .5-.1.4-.5-.1-.4 0-.7 0-1.2h-1.2V20h2.6v3.5c0 .2-.1.4-.3.4-1.2.3-2.3.4-3.5.2-1.4-.3-2.2-1.2-2.6-2.5-.2-1.4.3-3.1 1.5-3.9zM12.8 21.1c-.3-1-.5-1.9-.8-3-.2 1-.5 2-.8 3h1.6zM11 22.5c-.1.5-.3 1.1-.4 1.6-.1.2-.1.3-.4.3H8.7c.3-.9.5-1.8.8-2.7.4-1.5.9-2.9 1.3-4.4.1-.2.2-.4.5-.4h1.6c.1 0 .3.1.3.2.7 2.3 1.5 4.7 2.2 7v.2h-1.6c-.1 0-.2-.2-.2-.3-.2-.5-.3-1.1-.5-1.6-.7.1-1.4.1-2.1.1z"/></svg><svg viewBox="-1 -1 68 68" width="68" height="68" id="moon" y="136" xmlns="http://www.w3.org/2000/svg"><path d="M64.4 45.3c-.1-.6-.4-1.1-.7-1.5-.9-.9-1.9-1.1-3.1-.6-3.1 1.5-6.4 2.2-9.8 2.2-4.2 0-8.1-1-11.7-3.1-3.6-2.1-6.4-4.9-8.5-8.5-2.1-3.6-3.1-7.5-3.1-11.7 0-3.3.7-6.4 1.9-9.4 1.3-3 3.2-5.5 5.6-7.8.9-.9 1.2-1.9.6-3.1C35.1.6 34.2.1 33 .1 28.6.3 24.5 1.3 20.6 3c-3.9 1.8-7.3 4.1-10.1 7-2.8 2.9-5 6.4-6.7 10.3-1.6 4-2.5 8.2-2.5 12.5 0 4.5.9 8.7 2.6 12.8 1.7 4.1 4.1 7.6 7 10.5 2.9 2.9 6.4 5.3 10.5 7 4.1 1.7 8.3 2.6 12.8 2.6 6.4 0 12.3-1.7 17.7-5.2 5.4-3.5 9.5-8.1 12.1-13.9.5-.2.5-.8.4-1.3zM46.1 57.9c-3.7 1.8-7.6 2.6-11.7 2.6-3.7 0-7.3-.7-10.6-2.2-3.4-1.5-6.3-3.4-8.7-5.8-2.4-2.4-4.4-5.4-5.8-8.7-1.5-3.4-2.2-6.9-2.2-10.6 0-6.1 1.8-11.6 5.5-16.5 3.6-4.8 8.3-8.1 14.1-9.8-3 4.7-4.5 9.8-4.5 15.3 0 5.2 1.3 10 3.9 14.4 2.6 4.4 6.1 7.9 10.5 10.5C41 49.7 45.8 51 51 51c1.6 0 3.2-.1 4.7-.4-2.8 3.1-5.9 5.5-9.6 7.3z"/></svg><svg viewBox="-1 -1 24 24" width="24" height="24" id="moon-Xsmall" x="204" y="168" xmlns="http://www.w3.org/2000/svg"><path d="M21.5 15.1c-.1-.2-.1-.4-.2-.5-.3-.3-.7-.4-1-.2-1 .5-2.1.7-3.2.7-1.4 0-2.7-.3-3.9-1-1.2-.7-2.1-1.7-2.9-2.9-.7-1.2-1-2.5-1-3.9 0-1.1.2-2.1.7-3.1.4-1 1-1.8 1.9-2.6.3-.3.4-.7.2-1-.4-.4-.7-.6-1.1-.6-1.5.1-2.9.4-4.1 1-1.3.6-2.4 1.4-3.4 2.3S1.9 5.4 1.3 6.7C.7 8 .4 9.5.4 10.9c0 1.5.3 2.9.9 4.3s1.4 2.5 2.3 3.5c1 1 2.1 1.8 3.5 2.3 1.4.6 2.7.9 4.3.9 2.1 0 4.1-.5 5.9-1.8 1.8-1.2 3.2-2.7 4-4.6.2 0 .2-.2.2-.4zm-6.2 4.2c-1.2.6-2.5.9-3.9.9-1.2 0-2.4-.2-3.5-.7-1.1-.5-2.1-1.2-2.9-2-.8-.8-1.5-1.8-1.9-2.9-.5-1.2-.7-2.3-.7-3.5 0-2 .6-3.8 1.8-5.5C5.4 4 6.9 2.9 8.9 2.4c-1 1.5-1.5 3.2-1.5 5.1 0 1.8.4 3.4 1.3 4.8s2 2.6 3.5 3.5c1.5.9 3.1 1.3 4.8 1.3.5 0 1-.1 1.5-.1-.8.9-1.9 1.7-3.2 2.3z"/></svg><svg viewBox="-1 -1 42 42" width="42" height="42" id="moon-small" x="204" y="126" xmlns="http://www.w3.org/2000/svg"><path d="M39 27.5c-.1-.4-.2-.7-.4-.9-.5-.5-1.2-.7-1.9-.4-1.9.9-3.9 1.3-5.9 1.3-2.5 0-4.9-.6-7.1-1.9s-3.9-3-5.2-5.2c-1.3-2.2-1.9-4.5-1.9-7.1 0-2 .4-3.9 1.2-5.7.8-1.8 1.9-3.3 3.4-4.7.5-.5.7-1.2.4-1.9-.3-.7-.8-1-1.6-1-2.7.1-5.2.7-7.5 1.8C10.1 2.9 8.1 4.3 6.4 6s-3 3.9-4.1 6.2c-1 2.4-1.5 5-1.5 7.6 0 2.7.5 5.3 1.6 7.8s2.5 4.6 4.2 6.4c1.8 1.8 3.9 3.2 6.4 4.2s5 1.6 7.8 1.6c3.9 0 7.5-1 10.7-3.2s5.8-4.9 7.3-8.4c.3-.1.3-.4.2-.7zm-11.1 7.6c-2.2 1.1-4.6 1.6-7.1 1.6-2.2 0-4.4-.4-6.4-1.3-2.1-.9-3.8-2.1-5.3-3.5s-2.7-3.3-3.5-5.3c-.9-2.1-1.3-4.2-1.3-6.4 0-3.7 1.1-7 3.3-10 2.2-2.9 5-4.9 8.5-5.9-1.8 2.8-2.7 5.9-2.7 9.3 0 3.2.8 6.1 2.4 8.7s3.7 4.8 6.4 6.4c2.7 1.6 5.6 2.4 8.7 2.4 1 0 1.9-.1 2.8-.2-1.6 1.6-3.5 3.1-5.8 4.2z"/></svg><svg viewBox="-1 -1 68 68" width="68" height="68" id="oldPhone" x="136" y="68" xmlns="http://www.w3.org/2000/svg"><path d="M56.6 40.3c-.3-2.2-2-3.9-4.1-4.4-8.4-2-10.5-6.8-10.8-12.1-1.5-.3-4.1-.6-8.6-.6s-7.1.3-8.6.6C24 29.2 21.9 34 13.6 36c-2.2.5-3.8 2.2-4.1 4.4L7.8 51.5c-.6 3.9 2.3 7.5 6.3 7.5h37.7c4 0 6.9-3.6 6.3-7.5l-1.5-11.2zM33 50.8c-4.5 0-8.2-3.6-8.2-8.1s3.7-8.1 8.2-8.1 8.2 3.6 8.2 8.1-3.7 8.1-8.2 8.1zM65.3 20c0-4.9-12.4-13-32.3-13S.7 15.1.7 20c-.1 4.9.1 11.2 8.2 10.2 9.6-1.2 9-4.6 9-9.3 0-3.3 7.8-4.1 15.1-4.1s15.1.8 15.1 4.1c0 4.8-.6 8.1 9 9.3 8.2 1 8.3-5.3 8.2-10.2z"/></svg><svg viewBox="-1 -1 24 24" width="24" height="24" id="oldPhone-Xsmall" x="92" y="178" xmlns="http://www.w3.org/2000/svg"><path d="M18.9 13.4c-.1-.7-.7-1.3-1.4-1.5-2.8-.7-3.5-2.3-3.6-4-.5-.1-1.4-.2-2.9-.2s-2.3.1-2.8.2C8 9.7 7.3 11.3 4.6 12c-.7.2-1.3.7-1.4 1.5l-.5 3.7c-.2 1.3.8 2.5 2.1 2.5h12.5c1.3 0 2.3-1.2 2.1-2.5l-.5-3.8zM11 16.9c-1.5 0-2.8-1.2-2.8-2.7s1.2-2.7 2.8-2.7 2.8 1.2 2.8 2.7-1.3 2.7-2.8 2.7zM21.8 6.7c0-1.7-4.1-4.3-10.8-4.3S.2 5.1.2 6.7c0 1.6.1 3.7 2.8 3.4C6.2 9.7 6 8.5 6 7c0-1.1 2.6-1.4 5.1-1.4s5.1.3 5.1 1.4c0 1.6-.2 2.7 3 3.1 2.6.3 2.6-1.8 2.6-3.4z"/></svg><svg viewBox="-1 -1 42 42" width="42" height="42" id="oldPhone-small" x="68" y="136" xmlns="http://www.w3.org/2000/svg"><path d="M34.3 24.4c-.2-1.3-1.2-2.4-2.5-2.7-5.1-1.2-6.4-4.1-6.5-7.3-.9-.2-2.5-.4-5.2-.4s-4.3.2-5.2.4c-.3 3.3-1.6 6.2-6.6 7.4-1.3.3-2.3 1.3-2.5 2.7l-1 6.7c-.4 2.4 1.4 4.5 3.8 4.5h22.8c2.4 0 4.2-2.2 3.8-4.5l-.9-6.8zM20 30.8c-2.7 0-5-2.2-5-4.9s2.2-4.9 5-4.9 5 2.2 5 4.9-2.3 4.9-5 4.9zm19.6-18.7c0-3-7.5-7.9-19.6-7.9S.4 9.2.4 12.1c-.1 3 .1 6.8 5 6.2 5.8-.7 5.5-2.8 5.5-5.6 0-2 4.7-2.5 9.2-2.5s9.2.5 9.2 2.5c0 2.9-.4 4.9 5.5 5.6 4.8.6 4.8-3.2 4.8-6.2z"/></svg><svg viewBox="-1 -1 68 68" width="68" height="68" id="person" y="68" xmlns="http://www.w3.org/2000/svg"><path d="M32.4 33.1c4.5 0 8.4-1.6 11.6-4.8 3.2-3.2 4.8-7.1 4.8-11.6S47.2 8.3 44 5.1c-3.1-3.4-7-5-11.6-5S24 1.7 20.8 5C17.6 8.2 16 12.1 16 16.6s1.6 8.4 4.8 11.6c3.2 3.3 7.1 4.9 11.6 4.9z"/><path d="M62.5 50.5c-.1-1.4-.3-3-.6-4.7-.3-1.7-.7-3.2-1.1-4.7-.5-1.4-1.1-2.8-1.8-4.2-.8-1.4-1.7-2.5-2.7-3.5-1-1-2.2-1.7-3.7-2.3-1.4-.6-3-.9-4.8-.9-.3 0-.9.3-1.8.9-.9.6-2 1.3-3.2 2.1-1.2.8-2.7 1.4-4.6 2.1-1.9.6-3.8.9-5.7.9-1.9 0-3.8-.3-5.7-.9-1.9-.6-3.4-1.3-4.6-2.1-1.2-.8-2.3-1.4-3.2-2.1-.9-.6-1.5-.9-1.8-.9-1.7 0-3.3.3-4.8.9-1.4.6-2.7 1.3-3.7 2.3-1 1-1.9 2.1-2.7 3.5-.8 1.4-1.4 2.8-1.8 4.2-.5 1.4-.8 3-1.1 4.7-.3 1.7-.5 3.2-.6 4.7-.1 1.4-.1 2.9-.1 4.4 0 3.4 1 6.1 3.1 8.1s4.9 3 8.3 3h37.5c3.5 0 6.2-1 8.3-3 2.1-2 3.1-4.7 3.1-8.1-.1-1.5-.1-3-.2-4.4z"/></svg><svg viewBox="-1 -1 24 24" width="24" height="24" id="person-Xsmall" x="164" y="178" xmlns="http://www.w3.org/2000/svg"><path d="M11.8 11.1c1.5 0 2.8-.6 3.8-1.6s1.6-2.4 1.6-3.9-.5-2.8-1.6-3.9C14.6.5 13.3 0 11.8 0S9 .7 7.9 1.8c-1 1-1.6 2.4-1.6 3.9s.6 2.8 1.6 3.9 2.4 1.5 3.9 1.5z"/><path d="M21.8 16.8c-.1-.4-.1-1-.2-1.5s-.2-1-.4-1.5c-.2-.4-.4-.9-.6-1.4-.3-.4-.5-.8-.9-1.2-.3-.3-.7-.6-1.2-.8-.4-.2-1-.3-1.6-.3-.1 0-.3.1-.6.3-.3.2-.7.4-1 .7-.4.3-.9.4-1.5.7-.7.2-1.3.3-1.9.3-.7 0-1.3-.1-1.9-.3-.7-.2-1.2-.4-1.5-.7-.4-.3-.8-.4-1-.7-.3-.2-.5-.3-.6-.3-.6 0-1.1.1-1.6.3-.4.2-.9.4-1.2.8s-.8.7-1.1 1.2-.4.9-.6 1.4-.3 1-.4 1.5c-.1.6-.2 1-.2 1.5-.1.4-.1 1-.1 1.5 0 1.2.3 2 1 2.7.7.7 1.6 1 2.8 1H18c1.2 0 2.1-.3 2.8-1 .7-.7 1-1.5 1-2.7v-1.5z"/></svg><svg viewBox="-1 -1 42 42" width="42" height="42" id="person-small" x="204" y="84" xmlns="http://www.w3.org/2000/svg"><path d="M19.6 20.1c2.7 0 5.1-1 7-2.9 1.9-1.9 2.9-4.3 2.9-7s-1-5.1-2.9-7c-1.9-2.1-4.2-3-7-3s-5.1 1-7 3c-1.9 1.9-2.9 4.3-2.9 7s1 5.1 2.9 7c1.9 1.9 4.3 2.9 7 2.9z"/><path d="M37.9 30.6c-.1-.8-.2-1.8-.4-2.8-.2-1-.4-1.9-.7-2.8-.3-.8-.7-1.7-1.1-2.5-.5-.8-1-1.5-1.6-2.1-.6-.6-1.3-1-2.2-1.4-.8-.4-1.8-.5-2.9-.5-.2 0-.5.2-1.1.5-.5.4-1.2.8-1.9 1.3s-1.6.8-2.8 1.3c-1.2.4-2.3.5-3.5.5-1.2 0-2.3-.2-3.5-.5-1.2-.4-2.1-.8-2.8-1.3-.7-.5-1.4-.8-1.9-1.3-.5-.4-.9-.5-1.1-.5-1 0-2 .2-2.9.5-.8.4-1.6.8-2.2 1.4-.6.6-1.2 1.3-1.6 2.1s-.8 1.7-1.1 2.5c-.3.8-.5 1.8-.7 2.8-.2 1-.3 1.9-.4 2.8-.1.8-.1 1.8-.1 2.7 0 2.1.6 3.7 1.9 4.9s3 1.8 5 1.8H31c2.1 0 3.8-.6 5-1.8 1.3-1.2 1.9-2.8 1.9-4.9v-2.7z"/></svg></svg>