<?xml version="1.0" encoding="utf-8"?>
<!-- Generator: Adobe Illustrator 18.0.0, SVG Export Plug-In . SVG Version: 6.00 Build 0)  -->
<!DOCTYPE svg PUBLIC "-//W3C//DTD SVG 1.1//EN" "http://www.w3.org/Graphics/SVG/1.1/DTD/svg11.dtd">
<svg version="1.1" id="Layer_1" xmlns="http://www.w3.org/2000/svg" xmlns:xlink="http://www.w3.org/1999/xlink" x="0px" y="0px"
	 viewBox="0 0 66 66" enable-background="new 0 0 66 66" xml:space="preserve">
<g>
	<path d="M61.6,16.6c-2.9-5-6.9-9-12-12c-5-2.9-10.5-4.4-16.5-4.4c-6,0-11.5,1.5-16.5,4.4c-5,2.9-9,6.9-12,12
		c-2.9,5-4.4,10.5-4.4,16.5c0,6,1.5,11.5,4.4,16.5c2.9,5,6.9,9,12,12c5,2.9,10.5,4.4,16.5,4.4s11.5-1.5,16.5-4.4c5-2.9,9-6.9,12-12
		c2.9-5,4.4-10.5,4.4-16.5C66,27.2,64.5,21.7,61.6,16.6z M54.5,31L35.1,50.4c-0.5,0.5-1.2,0.8-1.9,0.8c-0.7,0-1.4-0.3-1.9-0.8
		L11.8,31C11.2,30.4,11,29.8,11,29c0-0.7,0.3-1.4,0.8-1.9l4.4-4.4c0.5-0.5,1.2-0.8,1.9-0.8c0.7,0,1.4,0.3,1.9,0.8l13.1,13.1
		l13.1-13.1c0.5-0.5,1.2-0.8,1.9-0.8c0.7,0,1.4,0.3,1.9,0.8l4.4,4.4c0.5,0.5,0.8,1.2,0.8,1.9C55.3,29.8,55,30.4,54.5,31z"/>
</g>
</svg>
