<?xml version="1.0" encoding="utf-8"?>
<!-- Generator: Adobe Illustrator 18.0.0, SVG Export Plug-In . SVG Version: 6.00 Build 0)  -->
<!DOCTYPE svg PUBLIC "-//W3C//DTD SVG 1.1//EN" "http://www.w3.org/Graphics/SVG/1.1/DTD/svg11.dtd">
<svg version="1.1" id="Layer_1" xmlns="http://www.w3.org/2000/svg" xmlns:xlink="http://www.w3.org/1999/xlink" x="0px" y="0px"
	 viewBox="0 0 66 66" enable-background="new 0 0 66 66" xml:space="preserve">
<g>
	<path d="M4.7,49.6c2.9,5,6.9,9,12,12c5,2.9,10.5,4.4,16.5,4.4c6,0,11.5-1.5,16.5-4.4c5-2.9,9-6.9,12-12c2.9-5,4.4-10.5,4.4-16.5
		c0-6-1.5-11.5-4.4-16.5c-2.9-5-6.9-9-12-12c-5-2.9-10.5-4.4-16.5-4.4S21.7,1.7,16.6,4.7c-5,2.9-9,6.9-12,12
		c-2.9,5-4.4,10.5-4.4,16.5C0.3,39.1,1.7,44.6,4.7,49.6z M11.8,35.3l19.4-19.4c0.5-0.5,1.2-0.8,1.9-0.8c0.7,0,1.4,0.3,1.9,0.8
		l19.4,19.4c0.5,0.5,0.8,1.2,0.8,1.9c0,0.7-0.3,1.4-0.8,1.9l-4.4,4.4c-0.5,0.5-1.2,0.8-1.9,0.8c-0.7,0-1.4-0.3-1.9-0.8L33.1,30.4
		L20,43.5c-0.5,0.5-1.2,0.8-1.9,0.8c-0.7,0-1.4-0.3-1.9-0.8l-4.4-4.4C11.2,38.6,11,38,11,37.2C11,36.5,11.2,35.9,11.8,35.3z"/>
</g>
</svg>
