<?xml version="1.0" encoding="utf-8"?>
<!-- Generator: Adobe Illustrator 18.0.0, SVG Export Plug-In . SVG Version: 6.00 Build 0)  -->
<!DOCTYPE svg PUBLIC "-//W3C//DTD SVG 1.1//EN" "http://www.w3.org/Graphics/SVG/1.1/DTD/svg11.dtd">
<svg version="1.1" id="Layer_1" xmlns="http://www.w3.org/2000/svg" xmlns:xlink="http://www.w3.org/1999/xlink" x="0px" y="0px"
	 viewBox="0 0 22 22" enable-background="new 0 0 22 22" xml:space="preserve">
<path d="M21.1,13h-0.7V5.3c0-1.8-1.5-3.2-3.2-3.2c-1.6,0-3,1.3-3.2,2.9h-2.3c-0.4,0-0.8,0.4-0.8,0.8s0.4,0.8,0.8,0.8h5.2
	c0.4,0,0.8-0.4,0.8-0.8S17.3,5,16.9,5h-2.1C15,3.9,16,3,17.2,3c1.3,0,2.4,1,2.4,2.4V13H0.9C0.4,13,0,13.4,0,13.9s0.4,0.9,0.9,0.9
	h0.2c0.1,0.8,0.4,3,0.6,4c0.1,0.7,0.5,1.2,1.2,1.2h16.2c0.7,0,1.1-0.6,1.2-1.2c0.2-0.9,0.4-3.1,0.5-4h0.2c0.5,0,0.9-0.4,0.9-0.9
	C22.1,13.4,21.6,13,21.1,13z"/>
</svg>
