<?xml version="1.0" encoding="utf-8"?>
<!-- Generator: Adobe Illustrator 18.0.0, SVG Export Plug-In . SVG Version: 6.00 Build 0)  -->
<!DOCTYPE svg PUBLIC "-//W3C//DTD SVG 1.1//EN" "http://www.w3.org/Graphics/SVG/1.1/DTD/svg11.dtd">
<svg version="1.1" id="Layer_1" xmlns="http://www.w3.org/2000/svg" xmlns:xlink="http://www.w3.org/1999/xlink" x="0px" y="0px"
	 viewBox="0 0 40 40" enable-background="new 0 0 40 40" xml:space="preserve">
<path d="M38.4,23.6h-1.3V9.6c0-3.3-2.7-5.9-5.9-5.9c-3,0-5.5,2.3-5.9,5.3h-4.1c-0.8,0-1.5,0.7-1.5,1.5c0,0.8,0.7,1.5,1.5,1.5h9.5
	c0.8,0,1.5-0.7,1.5-1.5c0-0.8-0.7-1.5-1.5-1.5h-3.9C27.2,7,29,5.4,31.2,5.4c2.4,0,4.3,1.9,4.3,4.3v13.9H1.6c-0.9,0-1.6,0.7-1.6,1.6
	c0,0.9,0.7,1.6,1.6,1.6h0.4c0.2,1.5,0.7,5.5,1,7.2c0.2,1.2,1,2.2,2.2,2.2h29.5c1.2,0,2-1,2.2-2.2c0.3-1.7,0.8-5.7,1-7.2h0.4
	c0.9,0,1.6-0.7,1.6-1.6C40.1,24.4,39.3,23.6,38.4,23.6z"/>
</svg>
