<?xml version="1.0" encoding="utf-8"?>
<!-- Generator: Adobe Illustrator 18.0.0, SVG Export Plug-In . SVG Version: 6.00 Build 0)  -->
<!DOCTYPE svg PUBLIC "-//W3C//DTD SVG 1.1//EN" "http://www.w3.org/Graphics/SVG/1.1/DTD/svg11.dtd">
<svg version="1.1" id="Layer_1" xmlns="http://www.w3.org/2000/svg" xmlns:xlink="http://www.w3.org/1999/xlink" x="0px" y="0px"
	 viewBox="0 0 22 22" enable-background="new 0 0 22 22" xml:space="preserve">
<g>
	<path d="M2.5,8.3c0-1.2,0.9-2.1,2.1-2.1h4.7c0.7,0,1.4,0.4,1.8,0.9c0.4-0.5,1-0.9,1.8-0.9h4.7c1.2,0,2.1,0.9,2.1,2.1v0.1h0.6v-2
		c0-1.3-1-2.3-2.3-2.3H4.3C3,4,2,5.1,2,6.3v2h0.5L2.5,8.3L2.5,8.3z"/>
	<path d="M21.1,9.3H0.9C0.4,9.3,0,9.7,0,10.2v5.1c0,0.4,0.4,0.9,0.9,0.9h0.4l-0.4,1.2c-0.1,0.3,0.1,0.5,0.3,0.7
		C1.2,18,1.2,18,1.3,18c0.2,0,0.4-0.1,0.4-0.3l0.6-1.5h17.5l0.6,1.5c0.1,0.2,0.3,0.3,0.4,0.3c0.1,0,0.1,0,0.2-0.1
		c0.3-0.1,0.4-0.4,0.3-0.7l-0.4-1.2h0.4c0.4,0,0.9-0.4,0.9-0.9v-5.1C22,9.7,21.6,9.3,21.1,9.3z"/>
	<path d="M12.8,7.2c-0.6,0-1.1,0.5-1.1,1.1v0.1h6.9V8.3c0-0.6-0.5-1.1-1.1-1.1H12.8z"/>
	<path d="M4.6,7.2C4,7.2,3.5,7.6,3.5,8.3v0.1h6.9V8.3c0-0.6-0.5-1.1-1.1-1.1H4.6z"/>
</g>
</svg>
