<?xml version="1.0" encoding="utf-8"?>
<!-- Generator: Adobe Illustrator 18.0.0, SVG Export Plug-In . SVG Version: 6.00 Build 0)  -->
<!DOCTYPE svg PUBLIC "-//W3C//DTD SVG 1.1//EN" "http://www.w3.org/Graphics/SVG/1.1/DTD/svg11.dtd">
<svg version="1.1" id="Layer_1" xmlns="http://www.w3.org/2000/svg" xmlns:xlink="http://www.w3.org/1999/xlink" x="0px" y="0px"
	 viewBox="0 0 40 40" enable-background="new 0 0 40 40" xml:space="preserve">
<g>
	<path d="M4.5,15c0-2.1,1.7-3.8,3.8-3.8h8.5c1.3,0,2.5,0.7,3.2,1.7c0.7-1,1.8-1.7,3.2-1.7h8.5c2.1,0,3.8,1.7,3.8,3.8v0.2h1v-3.7
		c0-2.3-1.9-4.2-4.2-4.2H7.8c-2.3,0-4.2,1.9-4.2,4.2v3.7h1V15L4.5,15z"/>
	<path d="M38.4,16.9H1.6c-0.8,0-1.6,0.7-1.6,1.6v9.2c0,0.8,0.7,1.6,1.6,1.6h0.7l-0.8,2.2c-0.2,0.5,0.1,1,0.5,1.2
		c0.1,0,0.2,0.1,0.3,0.1c0.4,0,0.7-0.2,0.8-0.6l1-2.8h31.8l1,2.8c0.1,0.4,0.5,0.6,0.8,0.6c0.1,0,0.2,0,0.3-0.1
		c0.5-0.2,0.7-0.7,0.5-1.2l-0.8-2.2h0.7c0.8,0,1.6-0.7,1.6-1.6v-9.3C40,17.6,39.3,16.9,38.4,16.9z"/>
	<path d="M23.2,13c-1.1,0-2,0.9-2,2v0.2h12.5V15c0-1.1-0.9-2-2-2C31.7,13,23.2,13,23.2,13z"/>
	<path d="M8.4,13c-1.1,0-2,0.9-2,2v0.2h12.5V15c0-1.1-0.9-2-2-2C16.9,13,8.4,13,8.4,13z"/>
</g>
</svg>
