<?xml version="1.0" encoding="utf-8"?>
<!-- Generator: Adobe Illustrator 18.0.0, SVG Export Plug-In . SVG Version: 6.00 Build 0)  -->
<!DOCTYPE svg PUBLIC "-//W3C//DTD SVG 1.1//EN" "http://www.w3.org/Graphics/SVG/1.1/DTD/svg11.dtd" [
	<!ENTITY ns_extend "http://ns.adobe.com/Extensibility/1.0/">
	<!ENTITY ns_ai "http://ns.adobe.com/AdobeIllustrator/10.0/">
	<!ENTITY ns_graphs "http://ns.adobe.com/Graphs/1.0/">
	<!ENTITY ns_vars "http://ns.adobe.com/Variables/1.0/">
	<!ENTITY ns_imrep "http://ns.adobe.com/ImageReplacement/1.0/">
	<!ENTITY ns_sfw "http://ns.adobe.com/SaveForWeb/1.0/">
	<!ENTITY ns_custom "http://ns.adobe.com/GenericCustomNamespace/1.0/">
	<!ENTITY ns_adobe_xpath "http://ns.adobe.com/XPath/1.0/">
]>
<svg version="1.1" id="Layer_1" xmlns:x="&ns_extend;" xmlns:i="&ns_ai;" xmlns:graph="&ns_graphs;"
	 xmlns="http://www.w3.org/2000/svg" xmlns:xlink="http://www.w3.org/1999/xlink" x="0px" y="0px" viewBox="0 0 66 66"
	 enable-background="new 0 0 66 66" xml:space="preserve">
<metadata>
	<sfw  xmlns="&ns_sfw;">
		<slices></slices>
		<sliceSourceBounds  width="66" height="41.9" bottomLeftOrigin="true" y="-54" x="0"></sliceSourceBounds>
	</sfw>
</metadata>
<g>
	<path d="M7.5,24.7c0-3.4,2.8-6.2,6.2-6.2h14c2.2,0,4.1,1.1,5.2,2.8c1.1-1.7,3-2.8,5.2-2.8h14c3.4,0,6.2,2.8,6.2,6.2V25h1.6v-6.1
		c0-3.8-3.1-6.9-6.9-6.9H12.8c-3.8,0-6.9,3.1-6.9,6.9V25h1.6L7.5,24.7L7.5,24.7z"/>
	<path d="M63.4,27.9H2.6c-1.4,0-2.6,1.2-2.6,2.6v15.2c0,1.4,1.2,2.6,2.6,2.6h1.1L2.4,52c-0.3,0.8,0.1,1.6,0.9,1.9
		C3.5,53.9,3.6,54,3.8,54c0.6,0,1.2-0.4,1.4-1l1.6-4.6h52.4l1.6,4.6c0.2,0.6,0.8,1,1.4,1c0.2,0,0.3,0,0.5-0.1
		c0.8-0.3,1.2-1.1,0.9-1.9l-1.3-3.6h1.1c1.4,0,2.6-1.2,2.6-2.6V30.5C66,29.1,64.8,27.9,63.4,27.9z"/>
	<path d="M38.2,21.4c-1.8,0-3.3,1.5-3.3,3.3V25h20.7v-0.3c0-1.8-1.5-3.3-3.3-3.3H38.2z"/>
	<path d="M13.8,21.4c-1.8,0-3.3,1.5-3.3,3.3V25h20.7v-0.3c0-1.8-1.5-3.3-3.3-3.3H13.8z"/>
</g>
</svg>
