<?xml version="1.0" encoding="utf-8"?>
<!-- Generator: Adobe Illustrator 18.0.0, SVG Export Plug-In . SVG Version: 6.00 Build 0)  -->
<!DOCTYPE svg PUBLIC "-//W3C//DTD SVG 1.1//EN" "http://www.w3.org/Graphics/SVG/1.1/DTD/svg11.dtd">
<svg version="1.1" id="Layer_1" xmlns="http://www.w3.org/2000/svg" xmlns:xlink="http://www.w3.org/1999/xlink" x="0px" y="0px"
	 viewBox="0 0 55 55" enable-background="new 0 0 55 55" xml:space="preserve">
<g>
	<g>
		<path d="M53.8,5.1C53,4.3,52.1,3.9,51,3.9H3.9c-1.1,0-2,0.4-2.8,1.2C0.4,5.8,0,6.8,0,7.9v39.3c0,1.1,0.4,2,1.2,2.8
			s1.7,1.2,2.8,1.2h47.1c1.1,0,2-0.4,2.8-1.2s1.2-1.7,1.2-2.8V7.9C55,6.8,54.6,5.8,53.8,5.1z M7.9,5.9h11.8v3.9H7.9V5.9z M51.1,47.1
			H3.9v-3.9H51L51.1,47.1L51.1,47.1z M15.7,29.5c0-3.3,1.2-6,3.5-8.3s5.1-3.5,8.3-3.5c3.3,0,6,1.2,8.3,3.5s3.5,5.1,3.5,8.3
			c0,3.3-1.2,6-3.5,8.3s-5.1,3.5-8.3,3.5c-3.3,0-6-1.2-8.3-3.5C16.9,35.6,15.7,32.8,15.7,29.5z M51.1,12.1v3.6H3.9v-3.9h19.8l2-3.9
			h25.4V12.1L51.1,12.1z"/>
		<path d="M33.1,35.1c1.5-1.5,2.3-3.4,2.3-5.6s-0.8-4-2.3-5.6c-1.5-1.5-3.4-2.3-5.6-2.3s-4,0.8-5.6,2.3c-1.5,1.5-2.3,3.4-2.3,5.6
			s0.8,4,2.3,5.6c1.5,1.5,3.4,2.3,5.6,2.3C29.7,37.4,31.5,36.6,33.1,35.1z M25.4,27.4c-0.6,0.6-0.9,1.3-0.9,2.1
			c0,0.3-0.1,0.5-0.3,0.7c-0.2,0.2-0.4,0.3-0.7,0.3c-0.3,0-0.5-0.1-0.7-0.3c-0.2-0.2-0.3-0.4-0.3-0.7c0-1.4,0.5-2.5,1.4-3.5
			c1-1,2.1-1.4,3.5-1.4c0.3,0,0.5,0.1,0.7,0.3c0.2,0.2,0.3,0.4,0.3,0.7c0,0.3-0.1,0.5-0.3,0.7c-0.2,0.2-0.4,0.3-0.7,0.3
			C26.7,26.5,26,26.8,25.4,27.4z"/>
	</g>
</g>
</svg>
