<?xml version="1.0" encoding="utf-8"?>
<!-- Generator: Adobe Illustrator 18.0.0, SVG Export Plug-In . SVG Version: 6.00 Build 0)  -->
<!DOCTYPE svg PUBLIC "-//W3C//DTD SVG 1.1//EN" "http://www.w3.org/Graphics/SVG/1.1/DTD/svg11.dtd">
<svg version="1.1" id="Layer_1" xmlns="http://www.w3.org/2000/svg" xmlns:xlink="http://www.w3.org/1999/xlink" x="0px" y="0px"
	 viewBox="0 0 55 55" enable-background="new 0 0 55 55" xml:space="preserve">
<g>
	<g>
		<path d="M51.3,13.8c-2.5-4.2-5.8-7.5-10-9.9c-4.2-2.4-8.8-3.6-13.8-3.6c-5,0-9.6,1.2-13.8,3.6c-4.2,2.4-7.5,5.7-10,9.9
			C1.2,18,0,22.6,0,27.5c0,4.9,1.2,9.5,3.7,13.7c2.5,4.2,5.8,7.5,10,9.9c4.2,2.4,8.8,3.6,13.8,3.6s9.6-1.2,13.8-3.6
			c4.2-2.4,7.5-5.7,10-9.9C53.8,37,55,32.4,55,27.5C55,22.6,53.8,18,51.3,13.8z M44.4,37.2c-1.7,3-4.1,5.3-7.1,7
			c-3,1.7-6.2,2.6-9.8,2.6c-3.5,0-6.8-0.9-9.8-2.6c-3-1.7-5.3-4.1-7.1-7C8.9,34.2,8,31,8,27.5c0-3.5,0.9-6.7,2.6-9.7
			c1.7-3,4.1-5.3,7.1-7c3-1.7,6.2-2.6,9.8-2.6c3.5,0,6.8,0.9,9.8,2.6c3,1.7,5.3,4.1,7.1,7c1.7,3,2.6,6.2,2.6,9.7
			C47,31,46.1,34.2,44.4,37.2z"/>
		<path d="M18.3,41.6l18.3-9.1V13.4l-18.3,9.1L18.3,41.6L18.3,41.6z M22.9,25.2l9.2,4.5l-9.2,4.5L22.9,25.2L22.9,25.2z"/>
	</g>
</g>
</svg>
