<?xml version="1.0" encoding="utf-8"?>
<!-- Generator: Adobe Illustrator 18.0.0, SVG Export Plug-In . SVG Version: 6.00 Build 0)  -->
<!DOCTYPE svg PUBLIC "-//W3C//DTD SVG 1.1//EN" "http://www.w3.org/Graphics/SVG/1.1/DTD/svg11.dtd">
<svg version="1.1" id="Layer_1" xmlns="http://www.w3.org/2000/svg" xmlns:xlink="http://www.w3.org/1999/xlink" x="0px" y="0px"
	 viewBox="0 0 44 44" enable-background="new 0 0 44 44" xml:space="preserve">
<g>
	<path fill="#CCBE9A" d="M40,39.2c1,0,1.8-0.4,2.6-0.8L30.2,26c-0.2,0.2-0.6,0.4-0.8,0.6c-0.8,0.6-1.6,1.2-2.4,1.6
		c-0.6,0.4-1.4,0.8-2.4,1.2C23.8,29.8,22.8,30,22,30l0,0c-0.8,0-1.8-0.2-2.6-0.6c-0.8-0.4-1.8-0.8-2.4-1.2c-0.6-0.4-1.4-0.8-2.4-1.6
		c-0.2-0.2-0.6-0.4-0.8-0.6L1.4,38.4C2.2,39,3,39.2,4,39.2H40L40,39.2z"/>
	<path fill="#CCBE9A" d="M2.6,18c-0.8-0.6-1.8-1.2-2.4-2v18.8L11,24C9,22.4,6,20.4,2.6,18L2.6,18z"/>
	<path fill="#CCBE9A" d="M41.4,18c-3.4,2.4-6.2,4.2-8.4,5.8l10.8,10.8V16C43.2,16.8,42.4,17.4,41.4,18L41.4,18z"/>
	<path fill="#CCBE9A" d="M40,4.8H4c-1.4,0-2.2,0.4-2.8,1.4s-1,1.8-1,3.2c0,1,0.4,2,1.4,3.4s1.8,2,2.8,2.8c0.6,0.4,2.2,1.6,5,3.6
		c1.6,1,2.8,2,4,2.8c0.8,0.6,1.8,1.4,2.4,1.8C16,24,16,24,16.2,24c0.2,0.2,0.4,0.2,0.6,0.4c0.6,0.4,0.8,0.6,1.4,0.8
		c0.4,0.2,0.8,0.6,1.4,0.8c0.4,0.2,0.8,0.6,1.4,0.6c0.4,0.2,0.8,0.2,1.2,0.2H22c0.4,0,0.8-0.2,1.2-0.2c0.4-0.2,0.8-0.4,1.4-0.6
		c0.4-0.2,0.8-0.6,1.4-0.8c0.4-0.2,0.8-0.6,1.4-0.8c0.2-0.2,0.4-0.4,0.6-0.4c0.2-0.2,0.2-0.2,0.4-0.2c0.6-0.4,1.4-0.8,2.4-1.8
		c2-1.4,5-3.6,9-6.2c1.2-0.8,2.2-1.8,3-3S44,10.4,44,9.2s-0.4-2-1.2-2.8C42,5.2,41,4.8,40,4.8L40,4.8z"/>
</g>
</svg>
