<?xml version="1.0" encoding="utf-8"?>
<!-- Generator: Adobe Illustrator 18.0.0, SVG Export Plug-In . SVG Version: 6.00 Build 0)  -->
<!DOCTYPE svg PUBLIC "-//W3C//DTD SVG 1.1//EN" "http://www.w3.org/Graphics/SVG/1.1/DTD/svg11.dtd">
<svg version="1.1" id="Layer_1" xmlns="http://www.w3.org/2000/svg" xmlns:xlink="http://www.w3.org/1999/xlink" x="0px" y="0px"
	 viewBox="0 0 40 40" enable-background="new 0 0 40 40" xml:space="preserve">
<g>
	<path d="M36.3,35.6c0.9,0,1.6-0.3,2.3-0.8L27.4,23.5c-0.2,0.2-0.5,0.4-0.8,0.5c-0.8,0.6-1.5,1.1-2.1,1.5c-0.5,0.4-1.2,0.7-2.1,1
		c-0.8,0.4-1.7,0.5-2.4,0.5H20c-0.7,0-1.6-0.2-2.4-0.5c-0.8-0.4-1.6-0.7-2.1-1c-0.5-0.4-1.2-0.8-2.1-1.5c-0.2-0.2-0.5-0.4-0.8-0.5
		L1.4,34.7c0.7,0.6,1.5,0.8,2.3,0.8H36.3z"/>
	<path d="M2.4,16.4c-0.8-0.5-1.6-1.2-2.2-1.9v17.1l9.9-9.9C8.1,20.3,5.5,18.5,2.4,16.4L2.4,16.4z"/>
	<path d="M37.6,16.4c-3,2.1-5.6,3.8-7.7,5.3l9.9,9.9v-17C39.2,15.2,38.5,15.8,37.6,16.4L37.6,16.4z"/>
	<path d="M36.3,4.4H3.7c-1.2,0-2,0.4-2.6,1.2S0.2,7.3,0.2,8.5c0,0.9,0.4,1.9,1.2,3s1.7,1.9,2.6,2.5c0.5,0.4,2,1.4,4.5,3.2
		c1.4,1,2.5,1.8,3.6,2.5c0.8,0.6,1.6,1.2,2.2,1.6c0.1,0.1,0.2,0.1,0.4,0.2c0.2,0.1,0.4,0.2,0.6,0.4c0.5,0.4,0.8,0.6,1.2,0.8
		c0.3,0.2,0.7,0.5,1.2,0.7c0.4,0.2,0.8,0.5,1.3,0.6c0.4,0.1,0.8,0.2,1.1,0.2H20c0.4,0,0.7-0.1,1.1-0.2c0.4-0.1,0.8-0.4,1.3-0.6
		c0.4-0.2,0.8-0.5,1.2-0.7c0.3-0.2,0.7-0.5,1.2-0.8c0.2-0.2,0.4-0.3,0.6-0.4s0.2-0.2,0.4-0.2c0.5-0.4,1.2-0.8,2.2-1.6
		c1.8-1.3,4.5-3.2,8.1-5.6c1.1-0.7,2-1.6,2.7-2.7c0.7-1,1.1-2.2,1.1-3.3c0-1-0.4-1.8-1-2.5C38.1,4.8,37.3,4.4,36.3,4.4L36.3,4.4z"/>
</g>
</svg>
