<?xml version="1.0" encoding="utf-8"?>
<!-- Generator: Adobe Illustrator 18.0.0, SVG Export Plug-In . SVG Version: 6.00 Build 0)  -->
<!DOCTYPE svg PUBLIC "-//W3C//DTD SVG 1.1//EN" "http://www.w3.org/Graphics/SVG/1.1/DTD/svg11.dtd">
<svg version="1.1" id="Layer_1" xmlns="http://www.w3.org/2000/svg" xmlns:xlink="http://www.w3.org/1999/xlink" x="0px" y="0px"
	 viewBox="0 0 55 55" enable-background="new 0 0 55 55" xml:space="preserve">
<g>
	<g id="XMLID_1_">
		<g>
			<path fill="#9AE2E2" d="M54.8,20v23.3L41.3,29.8c2.8-2,6.3-4.3,10.5-7.3C53,21.8,54,21,54.8,20z"/>
			<path fill="#9AE2E2" d="M53.5,8c1,1,1.5,2,1.5,3.5s-0.5,3-1.5,4.5s-2.3,2.8-3.8,3.8c-5,3.3-8.8,6-11.3,7.8
				c-1.3,1.3-2.3,1.8-3,2.3c-0.3,0-0.3,0-0.5,0.3c-0.3,0-0.5,0.3-0.8,0.5c-0.8,0.3-1.3,0.8-1.8,1c-0.8,0.3-1.3,0.8-1.8,1
				C30,32.8,29.5,33,29,33.3c-0.5,0-1,0.2-1.4,0.3h-0.1c-0.4,0-0.8,0-1.3-0.3c-0.8,0-1.3-0.5-1.8-0.8c-0.8-0.3-1.3-0.8-1.8-1
				c-0.8-0.3-1-0.5-1.8-1c-0.3-0.3-0.5-0.3-0.8-0.5c-0.3,0-0.3,0-0.5-0.3c-0.8-0.5-2-1.5-3-2.3c-1.5-1-3-2.3-5-3.5
				c-3.5-2.5-5.5-4-6.3-4.5c-1.3-1-2.3-1.8-3.5-3.5s-1.8-3-1.8-4.3c0-1.8,0.5-2.8,1.3-4S3.3,6,5,6h45C51.3,6,52.5,6.5,53.5,8z"/>
			<path fill="#9AE2E2" d="M37.8,32.5L53.3,48c-1,0.5-2,1-3.3,1H5c-1.3,0-2.3-0.3-3.3-1l15.5-15.5c0.3,0.3,0.8,0.5,1,0.8
				c1.3,1,2.3,1.5,3,2s2,1,3,1.5s2.3,0.8,3.3,0.8s2.3-0.3,3.3-0.8c1.3-0.5,2.3-1,3-1.5c1-0.5,2-1.3,3-2C37,33,37.5,32.8,37.8,32.5z"
				/>
			<path fill="#9AE2E2" d="M13.8,30L0.3,43.5V20c0.8,1,2,1.8,3,2.5C7.5,25.5,11.3,28,13.8,30z"/>
		</g>
		<g>
		</g>
	</g>
</g>
</svg>
