<?xml version="1.0" encoding="utf-8"?>
<!-- Generator: Adobe Illustrator 18.0.0, SVG Export Plug-In . SVG Version: 6.00 Build 0)  -->
<!DOCTYPE svg PUBLIC "-//W3C//DTD SVG 1.1//EN" "http://www.w3.org/Graphics/SVG/1.1/DTD/svg11.dtd">
<svg version="1.1" id="Layer_1" xmlns="http://www.w3.org/2000/svg" xmlns:xlink="http://www.w3.org/1999/xlink" x="0px" y="0px"
	 viewBox="0 0 22 22" enable-background="new 0 0 22 22" xml:space="preserve">
<g>
	<path d="M20,19.6c0.5,0,0.9-0.2,1.3-0.4l-6.2-6.2c-0.1,0.1-0.3,0.2-0.4,0.3c-0.4,0.3-0.8,0.6-1.2,0.8c-0.3,0.2-0.7,0.4-1.2,0.6
		c-0.4,0.2-0.9,0.3-1.3,0.3l0,0c-0.4,0-0.9-0.1-1.3-0.3c-0.4-0.2-0.9-0.4-1.2-0.6c-0.3-0.2-0.7-0.4-1.2-0.8
		c-0.1-0.1-0.3-0.2-0.4-0.3l-6.2,6.2c0.4,0.3,0.8,0.4,1.3,0.4L20,19.6L20,19.6z"/>
	<path d="M1.3,9C0.9,8.7,0.4,8.4,0.1,8v9.4l5.4-5.4C4.5,11.2,3,10.2,1.3,9L1.3,9z"/>
	<path d="M20.7,9c-1.7,1.2-3.1,2.1-4.2,2.9l5.4,5.4V8C21.6,8.4,21.2,8.7,20.7,9L20.7,9z"/>
	<path d="M20,2.4H2c-0.7,0-1.1,0.2-1.4,0.7S0.1,4,0.1,4.7c0,0.5,0.2,1,0.7,1.7s0.9,1,1.4,1.4c0.3,0.2,1.1,0.8,2.5,1.8
		c0.8,0.5,1.4,1,2,1.4c0.4,0.3,0.9,0.7,1.2,0.9c0.1,0.1,0.1,0.1,0.2,0.1c0.1,0.1,0.2,0.1,0.3,0.2c0.3,0.2,0.4,0.3,0.7,0.4
		c0.2,0.1,0.4,0.3,0.7,0.4c0.2,0.1,0.4,0.3,0.7,0.3c0.2,0.1,0.4,0.1,0.6,0.1H11c0.2,0,0.4-0.1,0.6-0.1c0.2-0.1,0.4-0.2,0.7-0.3
		c0.2-0.1,0.4-0.3,0.7-0.4c0.2-0.1,0.4-0.3,0.7-0.4c0.1-0.1,0.2-0.2,0.3-0.2c0.1-0.1,0.1-0.1,0.2-0.1c0.3-0.2,0.7-0.4,1.2-0.9
		c1-0.7,2.5-1.8,4.5-3.1c0.6-0.4,1.1-0.9,1.5-1.5c0.4-0.6,0.6-1.2,0.6-1.8c0-0.6-0.2-1-0.6-1.4C21,2.6,20.5,2.4,20,2.4L20,2.4z"/>
</g>
</svg>
