<?xml version="1.0" encoding="utf-8"?>
<!-- Generator: Adobe Illustrator 18.0.0, SVG Export Plug-In . SVG Version: 6.00 Build 0)  -->
<!DOCTYPE svg PUBLIC "-//W3C//DTD SVG 1.1//EN" "http://www.w3.org/Graphics/SVG/1.1/DTD/svg11.dtd">
<svg version="1.1" id="Icons" xmlns="http://www.w3.org/2000/svg" xmlns:xlink="http://www.w3.org/1999/xlink" x="0px" y="0px"
	 viewBox="0 0 66 66" enable-background="new 0 0 66 66" xml:space="preserve">
<g>
	<path d="M59.9,58.7c1.5,0,2.7-0.5,3.8-1.4L45.2,38.7c-0.4,0.3-0.9,0.6-1.3,0.9c-1.4,1-2.5,1.8-3.4,2.4c-0.9,0.6-2,1.1-3.4,1.7
		c-1.4,0.6-2.8,0.9-4,0.9H33c-1.2,0-2.6-0.3-4-0.9c-1.4-0.6-2.6-1.2-3.4-1.7c-0.9-0.6-2-1.4-3.4-2.4c-0.4-0.3-0.8-0.6-1.3-0.9
		L2.3,57.3c1.1,1,2.4,1.4,3.8,1.4C6.1,58.7,59.9,58.7,59.9,58.7z"/>
	<path d="M3.9,27c-1.4-0.9-2.6-2-3.7-3.2v28.2l16.3-16.3C13.3,33.5,9.1,30.6,3.9,27L3.9,27z"/>
	<path d="M62.1,27c-5,3.4-9.2,6.3-12.7,8.7l16.3,16.3V23.9C64.7,25,63.5,26.1,62.1,27L62.1,27z"/>
	<path d="M59.9,7.3H6.1c-1.9,0-3.3,0.6-4.3,1.9c-1,1.3-1.5,2.8-1.5,4.8c0,1.5,0.7,3.2,2,5c1.3,1.8,2.8,3.2,4.3,4.2
		c0.8,0.6,3.3,2.3,7.5,5.2c2.3,1.6,4.2,2.9,5.9,4.1c1.4,1,2.7,1.9,3.7,2.6c0.1,0.1,0.3,0.2,0.6,0.4c0.3,0.2,0.6,0.4,1,0.7
		c0.8,0.6,1.4,1,2,1.4c0.5,0.3,1.1,0.8,1.9,1.2c0.7,0.4,1.4,0.8,2.1,1c0.7,0.2,1.3,0.3,1.8,0.3H33c0.6,0,1.2-0.1,1.8-0.3
		c0.7-0.2,1.4-0.6,2.1-1c0.7-0.4,1.4-0.8,1.9-1.2c0.5-0.3,1.2-0.8,2-1.4c0.4-0.3,0.7-0.5,1-0.7c0.3-0.2,0.4-0.3,0.6-0.4
		c0.8-0.6,2-1.4,3.7-2.6c3-2.1,7.5-5.2,13.4-9.3c1.8-1.2,3.3-2.7,4.5-4.5c1.2-1.7,1.8-3.6,1.8-5.5c0-1.6-0.6-3-1.7-4.1
		C62.8,7.9,61.5,7.3,59.9,7.3L59.9,7.3z"/>
</g>
</svg>
