<?xml version="1.0" encoding="utf-8"?>
<!-- Generator: Adobe Illustrator 18.0.0, SVG Export Plug-In . SVG Version: 6.00 Build 0)  -->
<!DOCTYPE svg PUBLIC "-//W3C//DTD SVG 1.1//EN" "http://www.w3.org/Graphics/SVG/1.1/DTD/svg11.dtd">
<svg version="1.1" id="Layer_1" xmlns="http://www.w3.org/2000/svg" xmlns:xlink="http://www.w3.org/1999/xlink" x="0px" y="0px"
	 viewBox="0 0 40 40" enable-background="new 0 0 40 40" xml:space="preserve">
<g>
	<g id="XMLID_1_">
		<g>
			<path d="M40,25.4c-0.5,0-0.8,0-1.2,0c-0.7,0-1.3,0-1.9,0c-0.2,0-0.4,0.1-0.5,0.4c-0.5,1.8-1.3,3.4-2.2,4.9
				c-1.8,2.7-4.1,4.8-7,6.4c-2.2,1.2-4.5,1.9-7,2.1c-4.7,0.4-9-0.8-12.8-3.8c-4-3-6.4-7.2-7.2-12.1c-0.1-0.5-0.1-1-0.2-1.5
				c0-0.8,0-1.6,0-2.4c0.1-0.7,0.2-1.4,0.3-2.1C1.5,11.4,4.7,7.1,9.9,4.2c3.2-1.7,6.5-2.4,10-2.1c3.9,0.3,7.4,1.7,10.4,4.2
				c1.8,1.5,3.2,3.2,4.4,5.2c0.1,0.1,0.1,0.3,0.1,0.4c-0.5,1-1,2-1.5,3c-1.8-4.3-4.8-7.4-9.2-9.1c-3.5-1.3-6.9-1.5-10.4-0.3
				C6.1,8,2,15.3,2.8,22.3c0.9,7.9,7.3,13.6,14.6,14.1c7.9,0.5,14.2-4.6,16.2-10.9c-1,0-2.1,0-3.2,0c1.6-3.2,3.2-6.4,4.8-9.6
				C36.8,19.1,38.4,22.2,40,25.4z"/>
			<path d="M25.4,21.2c0,0.6,0,1.2,0,1.8c1,0,2,0,3,0c0,0.5,0,0.9,0,1.3c-1.6,0-3.1,0-4.7,0c0-2.4,0-4.8,0-7.3c1.5,0,3,0,4.5,0
				c0,0.4,0,0.8,0,1.3c-0.9,0-1.9,0-2.8,0c0,0.5,0,1,0,1.5c0.9,0,1.8,0,2.7,0c0,0.5,0,0.9,0,1.3C27.2,21.2,26.3,21.2,25.4,21.2z"/>
			<path d="M17.3,17.7c1.5-1,3.2-1,4.9-0.5c-0.1,0.5-0.2,0.9-0.3,1.2c-0.7-0.1-1.5-0.2-2.1-0.1c-1.3,0.1-2.1,1.1-2.1,2.4
				c0.1,1.6,1.2,2.5,2.7,2.3c0.3,0,0.5-0.1,0.4-0.5c-0.1-0.4,0-0.7,0-1.2c-0.4,0-0.7,0-1.2,0c0-0.4,0-0.8,0-1.3c0.5,0,0.9,0,1.3,0
				c0.4,0,0.9,0,1.3,0c0,0.1,0,0.2,0,0.3c0,1.1,0,2.2,0,3.2c0,0.2-0.1,0.4-0.3,0.4c-1.2,0.3-2.3,0.4-3.5,0.2
				c-1.4-0.3-2.2-1.2-2.6-2.5C15.6,20.2,16.1,18.5,17.3,17.7z"/>
			<path d="M12.8,21.1c-0.3-1-0.5-1.9-0.8-3c-0.2,1-0.5,2-0.8,3C11.8,21.1,12.3,21.1,12.8,21.1z M11,22.5c-0.1,0.5-0.3,1.1-0.4,1.6
				c-0.1,0.2-0.1,0.3-0.4,0.3c-0.5,0-0.9,0-1.5,0c0.3-0.9,0.5-1.8,0.8-2.7c0.4-1.5,0.9-2.9,1.3-4.4c0.1-0.2,0.2-0.4,0.5-0.4
				c0.5,0,1.1,0,1.6,0c0.1,0,0.3,0.1,0.3,0.2c0.7,2.3,1.5,4.7,2.2,7c0,0.1,0,0.1,0,0.2c-0.5,0-1.1,0-1.6,0c-0.1,0-0.2-0.2-0.2-0.3
				c-0.2-0.5-0.3-1.1-0.5-1.6C12.4,22.5,11.7,22.5,11,22.5z"/>
		</g>
	</g>
</g>
</svg>
