<?xml version="1.0" encoding="utf-8"?>
<!-- Generator: Adobe Illustrator 18.0.0, SVG Export Plug-In . SVG Version: 6.00 Build 0)  -->
<!DOCTYPE svg PUBLIC "-//W3C//DTD SVG 1.1//EN" "http://www.w3.org/Graphics/SVG/1.1/DTD/svg11.dtd" [
	<!ENTITY ns_extend "http://ns.adobe.com/Extensibility/1.0/">
	<!ENTITY ns_ai "http://ns.adobe.com/AdobeIllustrator/10.0/">
	<!ENTITY ns_graphs "http://ns.adobe.com/Graphs/1.0/">
	<!ENTITY ns_vars "http://ns.adobe.com/Variables/1.0/">
	<!ENTITY ns_imrep "http://ns.adobe.com/ImageReplacement/1.0/">
	<!ENTITY ns_sfw "http://ns.adobe.com/SaveForWeb/1.0/">
	<!ENTITY ns_custom "http://ns.adobe.com/GenericCustomNamespace/1.0/">
	<!ENTITY ns_adobe_xpath "http://ns.adobe.com/XPath/1.0/">
]>
<svg version="1.1" id="Layer_1" xmlns:x="&ns_extend;" xmlns:i="&ns_ai;" xmlns:graph="&ns_graphs;"
	 xmlns="http://www.w3.org/2000/svg" xmlns:xlink="http://www.w3.org/1999/xlink" x="0px" y="0px" viewBox="0 0 66 66"
	 enable-background="new 0 0 66 66" xml:space="preserve">
<metadata>
	<sfw  xmlns="&ns_sfw;">
		<slices></slices>
		<sliceSourceBounds  width="66" height="61.2" bottomLeftOrigin="true" y="3" x="0"></sliceSourceBounds>
	</sfw>
</metadata>
<g>
	<g id="XMLID_1_">
		<g>
			<path d="M66,40.3c-0.8,0-1.4,0-2,0c-1.1,0-2.2,0-3.2,0c-0.4,0-0.6,0.1-0.8,0.6c-0.8,2.9-2.1,5.6-3.7,8.1
				c-2.9,4.5-6.7,8-11.5,10.5c-3.6,1.9-7.5,3.1-11.6,3.4c-7.8,0.6-14.9-1.4-21.1-6.2c-6.6-5-10.5-11.8-11.8-20
				c-0.1-0.8-0.2-1.6-0.3-2.4c0-1.3,0-2.6,0-3.9c0.2-1.2,0.3-2.3,0.5-3.5C2.4,17.2,7.7,10,16.4,5.3c5.2-2.8,10.7-3.9,16.5-3.4
				c6.4,0.5,12.2,2.8,17.2,6.9c2.9,2.4,5.3,5.3,7.2,8.6c0.1,0.2,0.2,0.5,0.1,0.7c-0.8,1.6-1.6,3.3-2.5,4.9c-3-7.1-7.9-12.2-15.1-15
				c-5.7-2.2-11.4-2.4-17.2-0.5c-12.5,4.1-19.3,16.1-18,27.7c1.5,13.1,12.1,22.4,24.1,23.2c13,0.9,23.4-7.6,26.7-18
				c-1.7,0-3.5,0-5.3,0c2.7-5.3,5.3-10.6,8-15.9C60.7,29.8,63.3,35,66,40.3z"/>
			<path d="M41.9,33.3c0,1,0,1.9,0,2.9c1.6,0,3.3,0,4.9,0c0,0.8,0,1.5,0,2.2c-2.6,0-5.1,0-7.8,0c0-4,0-8,0-12.1c2.5,0,5,0,7.5,0
				c0,0.7,0,1.4,0,2.2c-1.5,0-3.1,0-4.7,0c0,0.9,0,1.7,0,2.5c1.5,0,2.9,0,4.4,0c0,0.8,0,1.5,0,2.2C44.9,33.3,43.4,33.3,41.9,33.3z"
				/>
			<path d="M28.5,27.5c2.5-1.7,5.2-1.7,8.1-0.9c-0.2,0.8-0.4,1.5-0.5,2c-1.2-0.1-2.4-0.3-3.5-0.2c-2.2,0.1-3.5,1.8-3.4,4
				c0.1,2.7,1.9,4.1,4.5,3.8c0.5,0,0.8-0.2,0.7-0.8s0-1.2,0-1.9c-0.7,0-1.2,0-1.9,0c0-0.7,0-1.4,0-2.2c0.8,0,1.5,0,2.2,0
				s1.5,0,2.2,0c0,0.2,0,0.4,0,0.5c0,1.8,0,3.6,0,5.3c0,0.4-0.1,0.6-0.5,0.7c-1.9,0.5-3.8,0.7-5.8,0.3c-2.3-0.5-3.7-1.9-4.3-4.2
				C25.7,31.7,26.5,28.9,28.5,27.5z"/>
			<path d="M21.2,33.2c-0.5-1.6-0.9-3.2-1.4-4.9c-0.4,1.7-0.9,3.3-1.3,4.9C19.4,33.2,20.3,33.2,21.2,33.2z M18.1,35.4
				c-0.2,0.9-0.5,1.8-0.7,2.6c-0.1,0.4-0.2,0.5-0.6,0.5c-0.8,0-1.5,0-2.4,0c0.5-1.5,0.9-3,1.4-4.4c0.7-2.4,1.5-4.8,2.2-7.3
				c0.1-0.4,0.3-0.6,0.8-0.6c0.9,0,1.8,0,2.6,0c0.2,0,0.5,0.2,0.5,0.4c1.2,3.8,2.4,7.7,3.6,11.5c0,0.1,0,0.1,0,0.3
				c-0.9,0-1.8,0-2.7,0c-0.1,0-0.3-0.3-0.4-0.5c-0.3-0.9-0.5-1.8-0.8-2.6C20.4,35.4,19.3,35.4,18.1,35.4z"/>
		</g>
	</g>
</g>
</svg>
