<?xml version="1.0" encoding="utf-8"?>
<!-- Generator: Adobe Illustrator 18.0.0, SVG Export Plug-In . SVG Version: 6.00 Build 0)  -->
<!DOCTYPE svg PUBLIC "-//W3C//DTD SVG 1.1//EN" "http://www.w3.org/Graphics/SVG/1.1/DTD/svg11.dtd">
<svg version="1.1" id="Layer_1" xmlns="http://www.w3.org/2000/svg" xmlns:xlink="http://www.w3.org/1999/xlink" x="0px" y="0px"
	 viewBox="0 0 22 22" enable-background="new 0 0 22 22" xml:space="preserve">
<g>
	<g id="XMLID_1_">
		<g>
			<path d="M22,14c-0.3,0-0.4,0-0.7,0c-0.4,0-0.7,0-1,0c-0.1,0-0.2,0.1-0.3,0.2c-0.3,1-0.7,1.9-1.2,2.7c-1,1.5-2.3,2.6-3.9,3.5
				c-1.2,0.7-2.5,1-3.9,1.2c-2.6,0.2-5-0.4-7-2.1c-2.2-1.6-3.5-4-4-6.7C0.1,12.5,0.1,12.3,0,12c0-0.4,0-0.9,0-1.3
				c0.1-0.4,0.1-0.8,0.2-1.2c0.7-3.2,2.4-5.6,5.3-7.2C7.2,1.4,9,1,10.9,1.2c2.1,0.2,4.1,0.9,5.7,2.3c1,0.8,1.8,1.8,2.4,2.9
				c0.1,0.1,0.1,0.2,0.1,0.2c-0.3,0.5-0.5,1.1-0.8,1.6c-1-2.4-2.6-4.1-5.1-5C11.3,2.5,9.5,2.4,7.5,3c-4.2,1.4-6.4,5.4-6,9.2
				c0.5,4.3,4,7.5,8,7.8c4.3,0.3,7.8-2.5,8.9-6c-0.5,0-1.2,0-1.8,0c0.9-1.8,1.8-3.5,2.6-5.3C20.2,10.5,21.1,12.2,22,14z"/>
			<path d="M14,11.7c0,0.3,0,0.7,0,1c0.6,0,1.1,0,1.6,0c0,0.3,0,0.5,0,0.7c-0.9,0-1.7,0-2.6,0c0-1.3,0-2.6,0-4c0.8,0,1.6,0,2.5,0
				c0,0.2,0,0.4,0,0.7c-0.5,0-1,0-1.5,0c0,0.3,0,0.6,0,0.8c0.5,0,1,0,1.5,0c0,0.3,0,0.5,0,0.7C15,11.7,14.5,11.7,14,11.7z"/>
			<path d="M9.5,9.7c0.8-0.6,1.8-0.6,2.7-0.3c-0.1,0.3-0.1,0.5-0.2,0.7c-0.4-0.1-0.8-0.1-1.2-0.1c-0.7,0.1-1.2,0.6-1.2,1.3
				c0.1,0.9,0.7,1.4,1.5,1.3c0.2,0,0.3-0.1,0.2-0.3c-0.1-0.2,0-0.4,0-0.7c-0.2,0-0.4,0-0.7,0c0-0.2,0-0.4,0-0.7c0.3,0,0.5,0,0.7,0
				c0.2,0,0.5,0,0.7,0c0,0.1,0,0.1,0,0.2c0,0.6,0,1.2,0,1.8c0,0.1-0.1,0.2-0.2,0.2c-0.7,0.2-1.3,0.2-1.9,0.1
				c-0.8-0.2-1.2-0.7-1.4-1.4C8.6,11.1,8.9,10.2,9.5,9.7z"/>
			<path d="M7,11.6c-0.2-0.6-0.3-1-0.4-1.6c-0.1,0.5-0.3,1.1-0.4,1.6C6.5,11.6,6.8,11.6,7,11.6z M6.1,12.4C6,12.7,5.9,13,5.8,13.3
				c-0.1,0.1-0.1,0.2-0.2,0.2c-0.3,0-0.5,0-0.8,0c0.2-0.5,0.3-1,0.4-1.5c0.2-0.8,0.5-1.6,0.7-2.4C6,9.4,6.1,9.3,6.2,9.3
				c0.3,0,0.6,0,0.9,0c0.1,0,0.2,0.1,0.2,0.1c0.4,1.3,0.8,2.6,1.2,3.8c0,0.1,0,0.1,0,0.1c-0.3,0-0.6,0-0.9,0c-0.1,0-0.1-0.1-0.1-0.2
				c-0.1-0.3-0.2-0.6-0.3-0.9C6.8,12.4,6.4,12.4,6.1,12.4z"/>
		</g>
	</g>
</g>
</svg>
