<?xml version="1.0" encoding="utf-8"?>
<!-- Generator: Adobe Illustrator 18.0.0, SVG Export Plug-In . SVG Version: 6.00 Build 0)  -->
<!DOCTYPE svg PUBLIC "-//W3C//DTD SVG 1.1//EN" "http://www.w3.org/Graphics/SVG/1.1/DTD/svg11.dtd">
<svg version="1.1" id="Layer_1" xmlns="http://www.w3.org/2000/svg" xmlns:xlink="http://www.w3.org/1999/xlink" x="0px" y="0px"
	 viewBox="0 0 66 66" enable-background="new 0 0 66 66" xml:space="preserve">
<g>
	<path d="M64.4,45.3c-0.1-0.6-0.4-1.1-0.7-1.5c-0.9-0.9-1.9-1.1-3.1-0.6c-3.1,1.5-6.4,2.2-9.8,2.2c-4.2,0-8.1-1-11.7-3.1
		c-3.6-2.1-6.4-4.9-8.5-8.5c-2.1-3.6-3.1-7.5-3.1-11.7c0-3.3,0.7-6.4,1.9-9.4c1.3-3,3.2-5.5,5.6-7.8c0.9-0.9,1.2-1.9,0.6-3.1
		c-0.5-1.2-1.4-1.7-2.6-1.7c-4.4,0.2-8.5,1.2-12.4,2.9c-3.9,1.8-7.3,4.1-10.1,7c-2.8,2.9-5,6.4-6.7,10.3c-1.6,4-2.5,8.2-2.5,12.5
		c0,4.5,0.9,8.7,2.6,12.8c1.7,4.1,4.1,7.6,7,10.5c2.9,2.9,6.4,5.3,10.5,7c4.1,1.7,8.3,2.6,12.8,2.6c6.4,0,12.3-1.7,17.7-5.2
		c5.4-3.5,9.5-8.1,12.1-13.9C64.5,46.4,64.5,45.8,64.4,45.3z M46.1,57.9c-3.7,1.8-7.6,2.6-11.7,2.6c-3.7,0-7.3-0.7-10.6-2.2
		c-3.4-1.5-6.3-3.4-8.7-5.8c-2.4-2.4-4.4-5.4-5.8-8.7c-1.5-3.4-2.2-6.9-2.2-10.6c0-6.1,1.8-11.6,5.5-16.5c3.6-4.8,8.3-8.1,14.1-9.8
		c-3,4.7-4.5,9.8-4.5,15.3c0,5.2,1.3,10,3.9,14.4c2.6,4.4,6.1,7.9,10.5,10.5c4.4,2.6,9.2,3.9,14.4,3.9c1.6,0,3.2-0.1,4.7-0.4
		C52.9,53.7,49.8,56.1,46.1,57.9z"/>
</g>
</svg>
