<?xml version="1.0" encoding="utf-8"?>
<!-- Generator: Adobe Illustrator 18.0.0, SVG Export Plug-In . SVG Version: 6.00 Build 0)  -->
<!DOCTYPE svg PUBLIC "-//W3C//DTD SVG 1.1//EN" "http://www.w3.org/Graphics/SVG/1.1/DTD/svg11.dtd">
<svg version="1.1" id="Layer_1" xmlns="http://www.w3.org/2000/svg" xmlns:xlink="http://www.w3.org/1999/xlink" x="0px" y="0px"
	 viewBox="0 0 40 40" enable-background="new 0 0 40 40" xml:space="preserve">
<g>
	<path d="M39,27.5c-0.1-0.4-0.2-0.7-0.4-0.9c-0.5-0.5-1.2-0.7-1.9-0.4c-1.9,0.9-3.9,1.3-5.9,1.3c-2.5,0-4.9-0.6-7.1-1.9
		s-3.9-3-5.2-5.2c-1.3-2.2-1.9-4.5-1.9-7.1c0-2,0.4-3.9,1.2-5.7c0.8-1.8,1.9-3.3,3.4-4.7c0.5-0.5,0.7-1.2,0.4-1.9
		c-0.3-0.7-0.8-1-1.6-1c-2.7,0.1-5.2,0.7-7.5,1.8c-2.4,1.1-4.4,2.5-6.1,4.2s-3,3.9-4.1,6.2c-1,2.4-1.5,5-1.5,7.6
		c0,2.7,0.5,5.3,1.6,7.8s2.5,4.6,4.2,6.4c1.8,1.8,3.9,3.2,6.4,4.2s5,1.6,7.8,1.6c3.9,0,7.5-1,10.7-3.2s5.8-4.9,7.3-8.4
		C39.1,28.1,39.1,27.8,39,27.5z M27.9,35.1c-2.2,1.1-4.6,1.6-7.1,1.6c-2.2,0-4.4-0.4-6.4-1.3c-2.1-0.9-3.8-2.1-5.3-3.5
		s-2.7-3.3-3.5-5.3c-0.9-2.1-1.3-4.2-1.3-6.4c0-3.7,1.1-7,3.3-10c2.2-2.9,5-4.9,8.5-5.9c-1.8,2.8-2.7,5.9-2.7,9.3
		c0,3.2,0.8,6.1,2.4,8.7s3.7,4.8,6.4,6.4c2.7,1.6,5.6,2.4,8.7,2.4c1,0,1.9-0.1,2.8-0.2C32.1,32.5,30.2,34,27.9,35.1z"/>
</g>
</svg>
