<?xml version="1.0" encoding="utf-8"?>
<!-- Generator: Adobe Illustrator 18.0.0, SVG Export Plug-In . SVG Version: 6.00 Build 0)  -->
<!DOCTYPE svg PUBLIC "-//W3C//DTD SVG 1.1//EN" "http://www.w3.org/Graphics/SVG/1.1/DTD/svg11.dtd">
<svg version="1.1" id="Layer_1" xmlns="http://www.w3.org/2000/svg" xmlns:xlink="http://www.w3.org/1999/xlink" x="0px" y="0px"
	 viewBox="0 0 22 22" enable-background="new 0 0 22 22" xml:space="preserve">
<g>
	<path d="M21.5,15.1c-0.1-0.2-0.1-0.4-0.2-0.5c-0.3-0.3-0.7-0.4-1-0.2c-1,0.5-2.1,0.7-3.2,0.7c-1.4,0-2.7-0.3-3.9-1
		c-1.2-0.7-2.1-1.7-2.9-2.9c-0.7-1.2-1-2.5-1-3.9c0-1.1,0.2-2.1,0.7-3.1c0.4-1,1-1.8,1.9-2.6c0.3-0.3,0.4-0.7,0.2-1
		C11.7,0.2,11.4,0,11,0C9.5,0.1,8.1,0.4,6.9,1C5.6,1.6,4.5,2.4,3.5,3.3S1.9,5.4,1.3,6.7C0.7,8,0.4,9.5,0.4,10.9
		c0,1.5,0.3,2.9,0.9,4.3s1.4,2.5,2.3,3.5c1,1,2.1,1.8,3.5,2.3c1.4,0.6,2.7,0.9,4.3,0.9c2.1,0,4.1-0.5,5.9-1.8c1.8-1.2,3.2-2.7,4-4.6
		C21.5,15.5,21.5,15.3,21.5,15.1z M15.3,19.3c-1.2,0.6-2.5,0.9-3.9,0.9c-1.2,0-2.4-0.2-3.5-0.7C6.8,19,5.8,18.3,5,17.5
		c-0.8-0.8-1.5-1.8-1.9-2.9c-0.5-1.2-0.7-2.3-0.7-3.5c0-2,0.6-3.8,1.8-5.5C5.4,4,6.9,2.9,8.9,2.4c-1,1.5-1.5,3.2-1.5,5.1
		c0,1.8,0.4,3.4,1.3,4.8s2,2.6,3.5,3.5c1.5,0.9,3.1,1.3,4.8,1.3c0.5,0,1-0.1,1.5-0.1C17.7,17.9,16.6,18.7,15.3,19.3z"/>
</g>
</svg>
