<?xml version="1.0" encoding="utf-8"?>
<!-- Generator: Adobe Illustrator 18.0.0, SVG Export Plug-In . SVG Version: 6.00 Build 0)  -->
<!DOCTYPE svg PUBLIC "-//W3C//DTD SVG 1.1//EN" "http://www.w3.org/Graphics/SVG/1.1/DTD/svg11.dtd" [
	<!ENTITY ns_extend "http://ns.adobe.com/Extensibility/1.0/">
	<!ENTITY ns_ai "http://ns.adobe.com/AdobeIllustrator/10.0/">
	<!ENTITY ns_graphs "http://ns.adobe.com/Graphs/1.0/">
	<!ENTITY ns_vars "http://ns.adobe.com/Variables/1.0/">
	<!ENTITY ns_imrep "http://ns.adobe.com/ImageReplacement/1.0/">
	<!ENTITY ns_sfw "http://ns.adobe.com/SaveForWeb/1.0/">
	<!ENTITY ns_custom "http://ns.adobe.com/GenericCustomNamespace/1.0/">
	<!ENTITY ns_adobe_xpath "http://ns.adobe.com/XPath/1.0/">
]>
<svg version="1.1" id="Layer_1" xmlns:x="&ns_extend;" xmlns:i="&ns_ai;" xmlns:graph="&ns_graphs;"
	 xmlns="http://www.w3.org/2000/svg" xmlns:xlink="http://www.w3.org/1999/xlink" x="0px" y="0px" viewBox="0 0 66 66"
	 enable-background="new 0 0 66 66" xml:space="preserve">
<metadata>
	<sfw  xmlns="&ns_sfw;">
		<slices></slices>
		<sliceSourceBounds  height="52" width="64.7" bottomLeftOrigin="true" y="-59" x="0.7"></sliceSourceBounds>
	</sfw>
</metadata>
<g>
	<g>
		<path d="M56.6,40.3c-0.3-2.2-2-3.9-4.1-4.4c-8.4-2-10.5-6.8-10.8-12.1c-1.5-0.3-4.1-0.6-8.6-0.6s-7.1,0.3-8.6,0.6
			C24,29.2,21.9,34,13.6,36c-2.2,0.5-3.8,2.2-4.1,4.4L7.8,51.5c-0.6,3.9,2.3,7.5,6.3,7.5h37.7c4,0,6.9-3.6,6.3-7.5L56.6,40.3
			L56.6,40.3z M33,50.8c-4.5,0-8.2-3.6-8.2-8.1c0-4.5,3.7-8.1,8.2-8.1s8.2,3.6,8.2,8.1C41.2,47.2,37.5,50.8,33,50.8z M65.3,20
			C65.3,15.1,52.9,7,33,7S0.7,15.1,0.7,20c-0.1,4.9,0.1,11.2,8.2,10.2c9.6-1.2,9-4.6,9-9.3c0-3.3,7.8-4.1,15.1-4.1
			s15.1,0.8,15.1,4.1c0,4.8-0.6,8.1,9,9.3C65.3,31.2,65.4,24.9,65.3,20z"/>
	</g>
</g>
</svg>
