<?xml version="1.0" encoding="utf-8"?>
<!-- Generator: Adobe Illustrator 18.0.0, SVG Export Plug-In . SVG Version: 6.00 Build 0)  -->
<!DOCTYPE svg PUBLIC "-//W3C//DTD SVG 1.1//EN" "http://www.w3.org/Graphics/SVG/1.1/DTD/svg11.dtd">
<svg version="1.1" id="Layer_1" xmlns="http://www.w3.org/2000/svg" xmlns:xlink="http://www.w3.org/1999/xlink" x="0px" y="0px"
	 viewBox="0 0 44 44" enable-background="new 0 0 44 44" xml:space="preserve">
<g>
	<g>
		<path fill="#CCBE9A" d="M38.2,26.7c-0.2-1.5-1.4-2.8-2.8-3.3c-5.7-1.5-7.1-5-7.3-8.7c-1-0.2-2.8-0.4-5.9-0.4s-4.7,0.2-5.7,0.4
			c-0.4,3.9-1.8,7.4-7.3,8.9c-1.4,0.4-2.6,1.5-2.8,3.3l-1,8c-0.4,2.8,1.6,5.4,4.3,5.4h25.4c2.6,0,4.7-2.6,4.3-5.4L38.2,26.7
			L38.2,26.7z M22.1,34.3c-3.1,0-5.7-2.6-5.7-5.9s2.4-5.9,5.7-5.9s5.7,2.6,5.7,5.9S25.2,34.3,22.1,34.3z M44.1,12.2
			c0-3.7-8.3-9.3-22-9.3s-22,5.9-22,9.3s0.2,8,5.7,7.4c6.5-0.9,6.1-3.5,6.1-6.7c0-2.4,5.3-3,10.4-3s10.4,0.7,10.4,3
			c0,3.5-0.4,5.9,6.1,6.7C44.1,20.2,44.1,15.6,44.1,12.2z"/>
	</g>
</g>
</svg>
