<?xml version="1.0" encoding="utf-8"?>
<!-- Generator: Adobe Illustrator 18.0.0, SVG Export Plug-In . SVG Version: 6.00 Build 0)  -->
<!DOCTYPE svg PUBLIC "-//W3C//DTD SVG 1.1//EN" "http://www.w3.org/Graphics/SVG/1.1/DTD/svg11.dtd">
<svg version="1.1" id="Layer_1" xmlns="http://www.w3.org/2000/svg" xmlns:xlink="http://www.w3.org/1999/xlink" x="0px" y="0px"
	 viewBox="0 0 55 55" enable-background="new 0 0 55 55" xml:space="preserve">
<g>
	<g id="XMLID_1_">
		<g>
			<path fill="#9AE2E2" d="M55.1,15.3c0,4.3,0,10-6.6,9.3c-8.1-1-7.6-4-7.6-8.4c0-2.9-6.6-3.7-13-3.7c-6.4,0-13,0.7-13,3.7
				c0,4,0.5,7.3-7.6,8.4c-6.9,0.8-7.1-5-7.1-9.3S10.5,3.6,27.6,3.6C44.8,3.6,55.1,10.6,55.1,15.3z"/>
			<path fill="#9AE2E2" d="M49.3,43.6c0.5,3.5-2.1,6.8-5.4,6.8H12.1c-3.4,0-5.9-3.3-5.4-6.8l1.3-10c0.3-2.3,1.8-3.6,3.5-4.1
				c6.9-1.9,8.6-6.3,9.1-11.1c1.3-0.3,3.3-0.5,7.1-0.5c3.9,0,6.1,0.3,7.4,0.5c0.3,4.6,2,9,9.1,10.9c1.8,0.6,3.3,2.3,3.5,4.1
				L49.3,43.6z M34.8,35.5c0-4.1-3-7.4-7.1-7.4c-4.1,0-7.1,3.3-7.1,7.4s3.3,7.4,7.1,7.4C31.5,42.9,34.8,39.6,34.8,35.5z"/>
		</g>
		<g>
		</g>
	</g>
</g>
</svg>
