<?xml version="1.0" encoding="utf-8"?>
<!-- Generator: Adobe Illustrator 18.0.0, SVG Export Plug-In . SVG Version: 6.00 Build 0)  -->
<!DOCTYPE svg PUBLIC "-//W3C//DTD SVG 1.1//EN" "http://www.w3.org/Graphics/SVG/1.1/DTD/svg11.dtd">
<svg version="1.1" id="Layer_1" xmlns="http://www.w3.org/2000/svg" xmlns:xlink="http://www.w3.org/1999/xlink" x="0px" y="0px"
	 viewBox="0 0 22 22" enable-background="new 0 0 22 22" xml:space="preserve">
<g>
	<g>
		<path d="M18.9,13.4c-0.1-0.7-0.7-1.3-1.4-1.5c-2.8-0.7-3.5-2.3-3.6-4c-0.5-0.1-1.4-0.2-2.9-0.2S8.7,7.8,8.2,7.9
			C8,9.7,7.3,11.3,4.6,12c-0.7,0.2-1.3,0.7-1.4,1.5l-0.5,3.7c-0.2,1.3,0.8,2.5,2.1,2.5h12.5c1.3,0,2.3-1.2,2.1-2.5L18.9,13.4
			L18.9,13.4z M11,16.9c-1.5,0-2.8-1.2-2.8-2.7s1.2-2.7,2.8-2.7s2.8,1.2,2.8,2.7S12.5,16.9,11,16.9z M21.8,6.7
			c0-1.7-4.1-4.3-10.8-4.3S0.2,5.1,0.2,6.7C0.2,8.3,0.3,10.4,3,10.1C6.2,9.7,6,8.5,6,7c0-1.1,2.6-1.4,5.1-1.4s5.1,0.3,5.1,1.4
			c0,1.6-0.2,2.7,3,3.1C21.8,10.4,21.8,8.3,21.8,6.7z"/>
	</g>
</g>
</svg>
