<?xml version="1.0" encoding="utf-8"?>
<!-- Generator: Adobe Illustrator 18.0.0, SVG Export Plug-In . SVG Version: 6.00 Build 0)  -->
<!DOCTYPE svg PUBLIC "-//W3C//DTD SVG 1.1//EN" "http://www.w3.org/Graphics/SVG/1.1/DTD/svg11.dtd">
<svg version="1.1" id="Layer_1" xmlns="http://www.w3.org/2000/svg" xmlns:xlink="http://www.w3.org/1999/xlink" x="0px" y="0px"
	 viewBox="0 0 40 40" enable-background="new 0 0 40 40" xml:space="preserve">
<g>
	<g>
		<path d="M34.3,24.4c-0.2-1.3-1.2-2.4-2.5-2.7c-5.1-1.2-6.4-4.1-6.5-7.3c-0.9-0.2-2.5-0.4-5.2-0.4s-4.3,0.2-5.2,0.4
			c-0.3,3.3-1.6,6.2-6.6,7.4c-1.3,0.3-2.3,1.3-2.5,2.7l-1,6.7c-0.4,2.4,1.4,4.5,3.8,4.5h22.8c2.4,0,4.2-2.2,3.8-4.5L34.3,24.4
			L34.3,24.4z M20,30.8c-2.7,0-5-2.2-5-4.9c0-2.7,2.2-4.9,5-4.9s5,2.2,5,4.9C25,28.6,22.7,30.8,20,30.8z M39.6,12.1
			c0-3-7.5-7.9-19.6-7.9S0.4,9.2,0.4,12.1c-0.1,3,0.1,6.8,5,6.2c5.8-0.7,5.5-2.8,5.5-5.6c0-2,4.7-2.5,9.2-2.5s9.2,0.5,9.2,2.5
			c0,2.9-0.4,4.9,5.5,5.6C39.6,18.9,39.6,15.1,39.6,12.1z"/>
	</g>
</g>
</svg>
