<?xml version="1.0" encoding="utf-8"?>
<!-- Generator: Adobe Illustrator 18.0.0, SVG Export Plug-In . SVG Version: 6.00 Build 0)  -->
<!DOCTYPE svg PUBLIC "-//W3C//DTD SVG 1.1//EN" "http://www.w3.org/Graphics/SVG/1.1/DTD/svg11.dtd">
<svg version="1.1" id="Layer_1" xmlns="http://www.w3.org/2000/svg" xmlns:xlink="http://www.w3.org/1999/xlink" x="0px" y="0px"
	 viewBox="0 0 66 66" enable-background="new 0 0 66 66" xml:space="preserve">
<g>
	<g>
		<path d="M32.4,33.1c4.5,0,8.4-1.6,11.6-4.8c3.2-3.2,4.8-7.1,4.8-11.6c0-4.5-1.6-8.4-4.8-11.6C40.9,1.7,37,0.1,32.4,0.1
			S24,1.7,20.8,5C17.6,8.2,16,12.1,16,16.6c0,4.5,1.6,8.4,4.8,11.6C24,31.5,27.9,33.1,32.4,33.1z"/>
		<path d="M62.5,50.5c-0.1-1.4-0.3-3-0.6-4.7c-0.3-1.7-0.7-3.2-1.1-4.7c-0.5-1.4-1.1-2.8-1.8-4.2c-0.8-1.4-1.7-2.5-2.7-3.5
			c-1-1-2.2-1.7-3.7-2.3c-1.4-0.6-3-0.9-4.8-0.9c-0.3,0-0.9,0.3-1.8,0.9c-0.9,0.6-2,1.3-3.2,2.1c-1.2,0.8-2.7,1.4-4.6,2.1
			c-1.9,0.6-3.8,0.9-5.7,0.9c-1.9,0-3.8-0.3-5.7-0.9c-1.9-0.6-3.4-1.3-4.6-2.1c-1.2-0.8-2.3-1.4-3.2-2.1c-0.9-0.6-1.5-0.9-1.8-0.9
			c-1.7,0-3.3,0.3-4.8,0.9c-1.4,0.6-2.7,1.3-3.7,2.3c-1,1-1.9,2.1-2.7,3.5c-0.8,1.4-1.4,2.8-1.8,4.2c-0.5,1.4-0.8,3-1.1,4.7
			c-0.3,1.7-0.5,3.2-0.6,4.7c-0.1,1.4-0.1,2.9-0.1,4.4c0,3.4,1,6.1,3.1,8.1c2.1,2,4.9,3,8.3,3h37.5c3.5,0,6.2-1,8.3-3
			c2.1-2,3.1-4.7,3.1-8.1C62.6,53.4,62.6,51.9,62.5,50.5z"/>
	</g>
</g>
</svg>
