<?xml version="1.0" encoding="utf-8"?>
<!-- Generator: Adobe Illustrator 18.0.0, SVG Export Plug-In . SVG Version: 6.00 Build 0)  -->
<!DOCTYPE svg PUBLIC "-//W3C//DTD SVG 1.1//EN" "http://www.w3.org/Graphics/SVG/1.1/DTD/svg11.dtd">
<svg version="1.1" id="Layer_1" xmlns="http://www.w3.org/2000/svg" xmlns:xlink="http://www.w3.org/1999/xlink" x="0px" y="0px"
	 viewBox="0 0 22 22" enable-background="new 0 0 22 22" xml:space="preserve">
<g>
	<g>
		<path d="M11.8,11.1c1.5,0,2.8-0.6,3.8-1.6c1-1,1.6-2.4,1.6-3.9s-0.5-2.8-1.6-3.9c-1-1.2-2.3-1.7-3.8-1.7S9,0.7,7.9,1.8
			c-1,1-1.6,2.4-1.6,3.9s0.6,2.8,1.6,3.9S10.3,11.1,11.8,11.1z"/>
		<path d="M21.8,16.8c-0.1-0.4-0.1-1-0.2-1.5s-0.2-1-0.4-1.5c-0.2-0.4-0.4-0.9-0.6-1.4c-0.3-0.4-0.5-0.8-0.9-1.2
			c-0.3-0.3-0.7-0.6-1.2-0.8c-0.4-0.2-1-0.3-1.6-0.3c-0.1,0-0.3,0.1-0.6,0.3c-0.3,0.2-0.7,0.4-1,0.7c-0.4,0.3-0.9,0.4-1.5,0.7
			c-0.7,0.2-1.3,0.3-1.9,0.3c-0.7,0-1.3-0.1-1.9-0.3c-0.7-0.2-1.2-0.4-1.5-0.7c-0.4-0.3-0.8-0.4-1-0.7c-0.3-0.2-0.5-0.3-0.6-0.3
			c-0.6,0-1.1,0.1-1.6,0.3c-0.4,0.2-0.9,0.4-1.2,0.8S3.3,11.9,3,12.4s-0.4,0.9-0.6,1.4s-0.3,1-0.4,1.5c-0.1,0.6-0.2,1-0.2,1.5
			c-0.1,0.4-0.1,1-0.1,1.5c0,1.2,0.3,2,1,2.7c0.7,0.7,1.6,1,2.8,1h12.5c1.2,0,2.1-0.3,2.8-1c0.7-0.7,1-1.5,1-2.7
			C21.8,17.8,21.8,17.3,21.8,16.8z"/>
	</g>
</g>
</svg>
